# https://github.com/mikedh/trimesh
mtllib 9849af0395972ff84e40f5c1a51db8a25e3ef6f7_part_14.mtl
usemtl material_0
v -0.33804027 0.17894391 -0.23718051
v -0.34047669 0.17894391 -0.24627334
v -0.34047669 0.19700167 -0.24627334
v -0.34713310 0.19700167 -0.25292975
v -0.33804027 0.19700167 -0.23718051
v -0.34713310 0.17894391 -0.25292975
v -0.34047669 0.17894391 -0.22808766
v -0.35622591 0.19700167 -0.25536617
v -0.34047669 0.19700167 -0.22808766
v -0.35622591 0.17894391 -0.25536617
v -0.34713310 0.17894391 -0.22143125
v -0.36531876 0.19700167 -0.25292975
v -0.34713310 0.19700167 -0.22143125
v -0.36531876 0.17894391 -0.25292975
v -0.35622595 0.17894391 -0.21899485
v -0.37197519 0.19700167 -0.24627334
v -0.35622595 0.19700167 -0.21899485
v -0.37197519 0.17894391 -0.24627334
v -0.36531876 0.17894391 -0.22143127
v -0.37441157 0.19700167 -0.23718051
v -0.36531876 0.19700167 -0.22143127
v -0.37441157 0.17894391 -0.23718051
v -0.37197519 0.17894391 -0.22808768
v -0.37197519 0.19700167 -0.22808768
v -0.34777345 0.17770683 -0.22254034
v -0.35622595 0.17770683 -0.22027550
v -0.36467844 0.17770683 -0.22254037
v -0.33932095 0.17770683 -0.23718051
v -0.34158579 0.17770683 -0.22872801
v -0.37086610 0.17770683 -0.22872801
v -0.37313092 0.17770683 -0.23718051
v -0.36467844 0.17770683 -0.25182066
v -0.37086610 0.17770683 -0.24563299
v -0.34777343 0.17770683 -0.25182066
v -0.34158579 0.17770683 -0.24563299
v -0.35622591 0.17770683 -0.25408550
v -0.34158579 0.19823866 -0.24563299
v -0.34777343 0.19823866 -0.25182066
v -0.35622591 0.19823866 -0.25408550
v -0.34158579 0.19823866 -0.22872801
v -0.33932095 0.19823866 -0.23718051
v -0.36467844 0.19823866 -0.25182066
v -0.37086610 0.19823866 -0.24563299
v -0.37086610 0.19823866 -0.22872801
v -0.37313092 0.19823866 -0.23718051
v -0.35622595 0.19823866 -0.22027550
v -0.34777345 0.19823866 -0.22254034
v -0.36467844 0.19823866 -0.22254037
v -0.33804027 0.17894391 -0.23718051
v -0.33932095 0.17770683 -0.23718051
v -0.34158579 0.17770683 -0.24563299
v -0.34047669 0.17894391 -0.24627334
v -0.34047669 0.19700167 -0.24627334
v -0.34158579 0.19823866 -0.24563299
v -0.33932095 0.19823866 -0.23718051
v -0.33804027 0.19700167 -0.23718051
v -0.34047669 0.17894391 -0.24627334
v -0.34158579 0.17770683 -0.24563299
v -0.34777343 0.17770683 -0.25182066
v -0.34713310 0.17894391 -0.25292975
v -0.34713310 0.19700167 -0.25292975
v -0.34777343 0.19823866 -0.25182066
v -0.34158579 0.19823866 -0.24563299
v -0.34158579 0.19823866 -0.24563299
v -0.34047669 0.19700167 -0.24627334
v -0.34713310 0.19700167 -0.25292975
v -0.34713310 0.17894391 -0.25292975
v -0.34777343 0.17770683 -0.25182066
v -0.35622591 0.17770683 -0.25408550
v -0.35622591 0.17894391 -0.25536617
v -0.35622591 0.19700167 -0.25536617
v -0.35622591 0.19823866 -0.25408550
v -0.34777343 0.19823866 -0.25182066
v -0.34713310 0.19700167 -0.25292975
v -0.35622591 0.17894391 -0.25536617
v -0.35622591 0.17770683 -0.25408550
v -0.36467844 0.17770683 -0.25182066
v -0.36531876 0.17894391 -0.25292975
v -0.36531876 0.19700167 -0.25292975
v -0.36467844 0.19823866 -0.25182066
v -0.35622591 0.19823866 -0.25408550
v -0.35622591 0.19700167 -0.25536617
v -0.36531876 0.17894391 -0.25292975
v -0.36467844 0.17770683 -0.25182066
v -0.37086610 0.17770683 -0.24563299
v -0.37086610 0.17770683 -0.24563299
v -0.37197519 0.17894391 -0.24627334
v -0.36531876 0.17894391 -0.25292975
v -0.37197519 0.19700167 -0.24627334
v -0.37086610 0.19823866 -0.24563299
v -0.36467844 0.19823866 -0.25182066
v -0.36467844 0.19823866 -0.25182066
v -0.36531876 0.19700167 -0.25292975
v -0.37197519 0.19700167 -0.24627334
v -0.37197519 0.17894391 -0.24627334
v -0.37086610 0.17770683 -0.24563299
v -0.37313092 0.17770683 -0.23718051
v -0.37441157 0.17894391 -0.23718051
v -0.37441157 0.19700167 -0.23718051
v -0.37313092 0.19823866 -0.23718051
v -0.37086610 0.19823866 -0.24563299
v -0.37197519 0.19700167 -0.24627334
v -0.37441157 0.17894391 -0.23718051
v -0.37313092 0.17770683 -0.23718051
v -0.37086610 0.17770683 -0.22872801
v -0.37197519 0.17894391 -0.22808768
v -0.37197519 0.19700167 -0.22808768
v -0.37086610 0.19823866 -0.22872801
v -0.37313092 0.19823866 -0.23718051
v -0.37441157 0.19700167 -0.23718051
v -0.37197519 0.17894391 -0.22808768
v -0.37086610 0.17770683 -0.22872801
v -0.36467844 0.17770683 -0.22254037
v -0.36531876 0.17894391 -0.22143127
v -0.36531876 0.19700167 -0.22143127
v -0.36467844 0.19823866 -0.22254037
v -0.37086610 0.19823866 -0.22872801
v -0.37197519 0.19700167 -0.22808768
v -0.36531876 0.17894391 -0.22143127
v -0.36467844 0.17770683 -0.22254037
v -0.35622595 0.17770683 -0.22027550
v -0.35622595 0.17894391 -0.21899485
v -0.35622595 0.19700167 -0.21899485
v -0.35622595 0.19823866 -0.22027550
v -0.36467844 0.19823866 -0.22254037
v -0.36531876 0.19700167 -0.22143127
v -0.35622595 0.17894391 -0.21899485
v -0.35622595 0.17770683 -0.22027550
v -0.34777345 0.17770683 -0.22254034
v -0.34713310 0.17894391 -0.22143125
v -0.34713310 0.19700167 -0.22143125
v -0.34777345 0.19823866 -0.22254034
v -0.35622595 0.19823866 -0.22027550
v -0.35622595 0.19700167 -0.21899485
v -0.34713310 0.17894391 -0.22143125
v -0.34777345 0.17770683 -0.22254034
v -0.34158579 0.17770683 -0.22872801
v -0.34047669 0.17894391 -0.22808766
v -0.34047669 0.19700167 -0.22808766
v -0.34158579 0.19823866 -0.22872801
v -0.34777345 0.19823866 -0.22254034
v -0.34713310 0.19700167 -0.22143125
v -0.34047669 0.17894391 -0.22808766
v -0.34158579 0.17770683 -0.22872801
v -0.33932095 0.17770683 -0.23718051
v -0.33804027 0.17894391 -0.23718051
v -0.33804027 0.19700167 -0.23718051
v -0.33932095 0.19823866 -0.23718051
v -0.34158579 0.19823866 -0.22872801
v -0.34047669 0.19700167 -0.22808766
vn 1.00000000 0.00000000 0.00000012
vn 0.86602540 0.00000000 -0.50000001
vn 0.86602540 0.00000000 -0.50000001
vn 0.49999994 0.00000000 -0.86602544
vn 1.00000000 0.00000000 0.00000015
vn 0.49999994 0.00000000 -0.86602544
vn 0.86602516 0.00000000 0.50000042
vn -0.00000011 0.00000000 -1.00000000
vn 0.86602516 0.00000000 0.50000042
vn -0.00000012 0.00000000 -1.00000000
vn 0.49999943 0.00000000 0.86602573
vn -0.50000001 0.00000000 -0.86602540
vn 0.49999952 0.00000000 0.86602568
vn -0.50000001 0.00000000 -0.86602540
vn -0.00000051 0.00000000 1.00000000
vn -0.86602540 0.00000000 -0.50000001
vn -0.00000050 0.00000000 1.00000000
vn -0.86602540 0.00000000 -0.50000001
vn -0.50000024 0.00000000 0.86602527
vn -1.00000000 0.00000000 -0.00000009
vn -0.50000031 0.00000000 0.86602523
vn -1.00000000 0.00000000 -0.00000009
vn -0.86602549 0.00000000 0.49999984
vn -0.86602549 0.00000000 0.49999984
vn 0.00000000 -1.00000000 0.00000000
vn 0.00000000 -1.00000000 0.00000000
vn 0.00000000 -1.00000000 0.00000000
vn 0.00000000 -1.00000000 0.00000000
vn 0.00000000 -1.00000000 0.00000000
vn 0.00000000 -1.00000000 0.00000000
vn 0.00000000 -1.00000000 0.00000000
vn 0.00000000 -1.00000000 0.00000000
vn 0.00000000 -1.00000000 0.00000000
vn 0.00000000 -1.00000000 0.00000000
vn 0.00000000 -1.00000000 0.00000000
vn 0.00000000 -1.00000000 0.00000000
vn 0.00000000 1.00000000 0.00000000
vn 0.00000000 1.00000000 0.00000000
vn 0.00000000 1.00000000 0.00000000
vn 0.00000000 1.00000000 0.00000000
vn 0.00000000 1.00000000 0.00000000
vn 0.00000000 1.00000000 0.00000000
vn 0.00000000 1.00000000 0.00000000
vn 0.00000000 1.00000000 0.00000000
vn 0.00000000 1.00000000 0.00000000
vn 0.00000000 1.00000000 0.00000000
vn 0.00000000 1.00000000 0.00000000
vn 0.00000000 1.00000000 0.00000000
vn 0.68301295 -0.70710651 -0.18301282
vn 0.68301295 -0.70710651 -0.18301282
vn 0.68301295 -0.70710651 -0.18301282
vn 0.68301272 -0.70710676 -0.18301272
vn 0.68301268 0.70710678 -0.18301279
vn 0.68301268 0.70710678 -0.18301279
vn 0.68301268 0.70710678 -0.18301279
vn 0.68301292 0.70710655 -0.18301279
vn 0.50000006 -0.70710670 -0.50000006
vn 0.50000006 -0.70710670 -0.50000006
vn 0.50000006 -0.70710670 -0.50000006
vn 0.50000011 -0.70710670 -0.50000000
vn 0.49999990 0.70710693 -0.49999990
vn 0.49999990 0.70710693 -0.49999990
vn 0.49999990 0.70710693 -0.49999990
vn 0.50000011 0.70710670 -0.50000000
vn 0.50000011 0.70710670 -0.50000000
vn 0.50000011 0.70710670 -0.50000000
vn 0.18301266 -0.70710671 -0.68301278
vn 0.18301266 -0.70710671 -0.68301278
vn 0.18301266 -0.70710671 -0.68301278
vn 0.18301264 -0.70710657 -0.68301294
vn 0.18301274 0.70710653 -0.68301296
vn 0.18301274 0.70710653 -0.68301296
vn 0.18301274 0.70710653 -0.68301296
vn 0.18301258 0.70710684 -0.68301267
vn -0.18301286 -0.70710654 -0.68301291
vn -0.18301286 -0.70710654 -0.68301291
vn -0.18301286 -0.70710654 -0.68301291
vn -0.18301271 -0.70710685 -0.68301263
vn -0.18301279 0.70710678 -0.68301268
vn -0.18301279 0.70710678 -0.68301268
vn -0.18301279 0.70710678 -0.68301268
vn -0.18301279 0.70710655 -0.68301292
vn -0.49999987 -0.70710691 -0.49999995
vn -0.49999987 -0.70710691 -0.49999995
vn -0.49999987 -0.70710691 -0.49999995
vn -0.50000000 -0.70710678 -0.50000000
vn -0.50000000 -0.70710678 -0.50000000
vn -0.50000000 -0.70710678 -0.50000000
vn -0.49999995 0.70710691 -0.49999987
vn -0.49999995 0.70710691 -0.49999987
vn -0.49999995 0.70710691 -0.49999987
vn -0.50000000 0.70710678 -0.50000000
vn -0.50000000 0.70710678 -0.50000000
vn -0.50000000 0.70710678 -0.50000000
vn -0.68301264 -0.70710681 -0.18301281
vn -0.68301264 -0.70710681 -0.18301281
vn -0.68301264 -0.70710681 -0.18301281
vn -0.68301289 -0.70710658 -0.18301279
vn -0.68301290 0.70710653 -0.18301290
vn -0.68301290 0.70710653 -0.18301290
vn -0.68301290 0.70710653 -0.18301290
vn -0.68301262 0.70710685 -0.18301274
vn -0.68301298 -0.70710649 0.18301276
vn -0.68301298 -0.70710649 0.18301276
vn -0.68301298 -0.70710649 0.18301276
vn -0.68301273 -0.70710678 0.18301261
vn -0.68301269 0.70710680 0.18301269
vn -0.68301269 0.70710680 0.18301269
vn -0.68301269 0.70710680 0.18301269
vn -0.68301291 0.70710659 0.18301267
vn -0.50000012 -0.70710678 0.49999989
vn -0.50000012 -0.70710678 0.49999989
vn -0.50000012 -0.70710678 0.49999989
vn -0.50000006 -0.70710689 0.49999979
vn -0.50000001 0.70710690 0.49999983
vn -0.50000001 0.70710690 0.49999983
vn -0.50000001 0.70710690 0.49999983
vn -0.50000017 0.70710675 0.49999987
vn -0.18301310 -0.70710695 0.68301242
vn -0.18301310 -0.70710695 0.68301242
vn -0.18301310 -0.70710695 0.68301242
vn -0.18301308 -0.70710654 0.68301285
vn -0.18301317 0.70710653 0.68301284
vn -0.18301317 0.70710653 0.68301284
vn -0.18301317 0.70710653 0.68301284
vn -0.18301300 0.70710690 0.68301250
vn 0.18301246 -0.70710653 0.68301302
vn 0.18301246 -0.70710653 0.68301302
vn 0.18301246 -0.70710653 0.68301302
vn 0.18301237 -0.70710672 0.68301285
vn 0.18301243 0.70710677 0.68301279
vn 0.18301243 0.70710677 0.68301279
vn 0.18301243 0.70710677 0.68301279
vn 0.18301241 0.70710654 0.68301303
vn 0.49999968 -0.70710679 0.50000031
vn 0.49999968 -0.70710679 0.50000031
vn 0.49999968 -0.70710679 0.50000031
vn 0.49999964 -0.70710683 0.50000030
vn 0.49999957 0.70710688 0.50000029
vn 0.49999957 0.70710688 0.50000029
vn 0.49999957 0.70710688 0.50000029
vn 0.49999968 0.70710679 0.50000031
vn 0.68301253 -0.70710687 0.18301297
vn 0.68301253 -0.70710687 0.18301297
vn 0.68301253 -0.70710687 0.18301297
vn 0.68301284 -0.70710658 0.18301296
vn 0.68301288 0.70710651 0.18301308
vn 0.68301288 0.70710651 0.18301308
vn 0.68301288 0.70710651 0.18301308
vn 0.68301255 0.70710689 0.18301287
f 1//1 2//2 3//3
f 4//4 3//3 2//2
f 3//3 5//5 1//1
f 2//2 6//6 4//4
f 7//7 1//1 5//5
f 8//8 4//4 6//6
f 5//5 9//9 7//7
f 6//6 10//10 8//8
f 11//11 7//7 9//9
f 12//12 8//8 10//10
f 9//9 13//13 11//11
f 10//10 14//14 12//12
f 15//15 11//11 13//13
f 16//16 12//12 14//14
f 13//13 17//17 15//15
f 14//14 18//18 16//16
f 19//19 15//15 17//17
f 20//20 16//16 18//18
f 17//17 21//21 19//19
f 18//18 22//22 20//20
f 23//23 19//19 21//21
f 24//24 20//20 22//22
f 22//22 23//23 24//24
f 21//21 24//24 23//23
f 25//25 26//26 27//27
f 25//25 27//27 28//28
f 29//29 25//25 28//28
f 27//27 30//30 31//31
f 27//27 31//31 32//32
f 27//27 32//32 28//28
f 31//31 33//33 32//32
f 32//32 34//34 28//28
f 34//34 35//35 28//28
f 32//32 36//36 34//34
f 37//37 38//38 39//39
f 37//37 39//39 40//40
f 41//41 37//37 40//40
f 39//39 42//42 43//43
f 39//39 43//43 44//44
f 39//39 44//44 40//40
f 43//43 45//45 44//44
f 44//44 46//46 40//40
f 46//46 47//47 40//40
f 44//44 48//48 46//46
f 49//49 50//50 51//51
f 51//51 52//52 49//49
f 53//53 54//54 55//55
f 55//55 56//56 53//53
f 57//57 58//58 59//59
f 59//59 60//60 57//57
f 61//61 62//62 63//63
f 64//64 65//65 66//66
f 67//67 68//68 69//69
f 69//69 70//70 67//67
f 71//71 72//72 73//73
f 73//73 74//74 71//71
f 75//75 76//76 77//77
f 77//77 78//78 75//75
f 79//79 80//80 81//81
f 81//81 82//82 79//79
f 83//83 84//84 85//85
f 86//86 87//87 88//88
f 89//89 90//90 91//91
f 92//92 93//93 94//94
f 95//95 96//96 97//97
f 97//97 98//98 95//95
f 99//99 100//100 101//101
f 101//101 102//102 99//99
f 103//103 104//104 105//105
f 105//105 106//106 103//103
f 107//107 108//108 109//109
f 109//109 110//110 107//107
f 111//111 112//112 113//113
f 113//113 114//114 111//111
f 115//115 116//116 117//117
f 117//117 118//118 115//115
f 119//119 120//120 121//121
f 121//121 122//122 119//119
f 123//123 124//124 125//125
f 125//125 126//126 123//123
f 127//127 128//128 129//129
f 129//129 130//130 127//127
f 131//131 132//132 133//133
f 133//133 134//134 131//131
f 135//135 136//136 137//137
f 137//137 138//138 135//135
f 139//139 140//140 141//141
f 141//141 142//142 139//139
f 143//143 144//144 145//145
f 145//145 146//146 143//143
f 147//147 148//148 149//149
f 149//149 150//150 147//147

