# https://github.com/mikedh/trimesh
mtllib 9849af0395972ff84e40f5c1a51db8a25e3ef6f7_part_12.mtl
usemtl material_0
v 0.16417641 0.12661948 0.25168138
v 0.16417642 0.05851517 0.25168138
v 0.15711518 0.05851517 0.25168138
v 0.15711517 0.12661948 0.25168138
v 0.16417642 0.05851517 0.25168138
v 0.16417642 0.05961354 0.26252865
v 0.15711518 0.05961354 0.26252865
v 0.15711518 0.05851517 0.25168138
v 0.16417642 0.05961354 0.26252865
v 0.16417642 0.06139857 0.26554942
v 0.15711518 0.06139857 0.26554940
v 0.15711518 0.05961354 0.26252865
v 0.16417642 0.06139857 0.26554942
v 0.16417641 0.11618409 0.26554942
v 0.15711517 0.11618409 0.26554942
v 0.15711518 0.06139857 0.26554940
v 0.16417641 0.11618409 0.26554942
v 0.16417641 0.12112721 0.26252865
v 0.15711517 0.12112721 0.26252865
v 0.15711517 0.11618409 0.26554942
v 0.16417641 0.12112721 0.26252865
v 0.16417641 0.12497180 0.25744831
v 0.15711517 0.12497180 0.25744831
v 0.15711517 0.12112721 0.26252865
v 0.16417641 0.12497180 0.25744831
v 0.16417641 0.12661948 0.25168138
v 0.15711517 0.12661948 0.25168138
v 0.15711517 0.12497180 0.25744831
v 0.16417641 0.12497180 0.25744831
v 0.16417642 0.05851517 0.25168138
v 0.16417641 0.12661948 0.25168138
v 0.16417641 0.12112721 0.26252865
v 0.16417641 0.11618409 0.26554942
v 0.16417642 0.06139857 0.26554942
v 0.16417642 0.05961354 0.26252865
v 0.15711517 0.12497180 0.25744831
v 0.15711517 0.12661948 0.25168138
v 0.15711518 0.05851517 0.25168138
v 0.15711517 0.12112721 0.26252865
v 0.15711517 0.11618409 0.26554942
v 0.15711518 0.06139857 0.26554940
v 0.15711518 0.05961354 0.26252865
v 0.16058714 0.08938990 0.27095678
v 0.18776864 0.08938990 0.27095678
v 0.18569959 0.09979181 0.27095678
v 0.18569959 0.07898799 0.27095678
v 0.17980737 0.10861013 0.27095678
v 0.17980737 0.07016967 0.27095678
v 0.17098905 0.11450232 0.27095678
v 0.17098906 0.06427748 0.27095678
v 0.16058714 0.11657138 0.27095678
v 0.16058714 0.06220834 0.27095678
v 0.15018524 0.11450232 0.27095678
v 0.15018524 0.06427748 0.27095678
v 0.14136692 0.10861013 0.27095678
v 0.14136691 0.07016967 0.27095678
v 0.13547471 0.09979181 0.27095678
v 0.13547471 0.07898799 0.27095678
v 0.13340564 0.08938990 0.27095678
v 0.18776864 0.08938990 0.27095678
v 0.19036742 0.08938990 0.26835800
v 0.18810055 0.10078632 0.26835800
v 0.18569959 0.07898799 0.27095678
v 0.18569959 0.09979181 0.27095678
v 0.18810055 0.07799348 0.26835800
v 0.18164499 0.11044773 0.26835800
v 0.17980737 0.07016967 0.27095678
v 0.17980737 0.10861013 0.27095678
v 0.18164499 0.06833207 0.26835800
v 0.17198357 0.11690330 0.26835800
v 0.17098906 0.06427748 0.27095678
v 0.17098905 0.11450232 0.27095678
v 0.17198357 0.06187649 0.26835800
v 0.16058714 0.11917016 0.26835800
v 0.16058714 0.06220834 0.27095678
v 0.16058714 0.11657138 0.27095678
v 0.16058714 0.05960955 0.26835800
v 0.14919072 0.11690330 0.26835800
v 0.15018524 0.06427748 0.27095678
v 0.15018524 0.11450232 0.27095678
v 0.14919072 0.06187649 0.26835800
v 0.13952931 0.11044773 0.26835800
v 0.14136691 0.07016967 0.27095678
v 0.14136692 0.10861013 0.27095678
v 0.13952930 0.06833207 0.26835800
v 0.13307375 0.10078632 0.26835800
v 0.13547471 0.07898799 0.27095678
v 0.13547471 0.09979181 0.27095678
v 0.13307375 0.07799348 0.26835800
v 0.13080686 0.08938990 0.26835800
v 0.13340564 0.08938990 0.27095678
v 0.19036742 0.08938990 0.26835800
v 0.19036742 0.08938990 0.24957282
v 0.18810055 0.10078632 0.24957282
v 0.18810055 0.07799348 0.26835800
v 0.18810055 0.10078632 0.26835800
v 0.18810055 0.07799348 0.24957282
v 0.18164499 0.11044773 0.24957282
v 0.18164499 0.06833207 0.26835800
v 0.18164499 0.11044773 0.26835800
v 0.18164499 0.06833207 0.24957282
v 0.17198357 0.11690330 0.24957282
v 0.17198357 0.06187649 0.26835800
v 0.17198357 0.11690330 0.26835800
v 0.17198357 0.06187649 0.24957282
v 0.16058714 0.11917016 0.24957282
v 0.16058714 0.05960955 0.26835800
v 0.16058714 0.11917016 0.26835800
v 0.16058714 0.05960955 0.24957282
v 0.14919072 0.11690330 0.24957282
v 0.14919072 0.06187649 0.26835800
v 0.14919072 0.11690330 0.26835800
v 0.14919072 0.06187649 0.24957282
v 0.13952931 0.11044773 0.24957282
v 0.13952930 0.06833207 0.26835800
v 0.13952931 0.11044773 0.26835800
v 0.13952930 0.06833207 0.24957282
v 0.13307375 0.10078632 0.24957282
v 0.13307375 0.07799348 0.26835800
v 0.13307375 0.10078632 0.26835800
v 0.13307375 0.07799348 0.24957282
v 0.13080686 0.08938990 0.24957282
v 0.13080686 0.08938990 0.26835800
v 0.19036742 0.08938990 0.24957282
v 0.18776864 0.08938990 0.24697403
v 0.18569959 0.09979181 0.24697403
v 0.18810055 0.07799348 0.24957282
v 0.18810055 0.10078632 0.24957282
v 0.18569959 0.07898799 0.24697403
v 0.17980737 0.10861013 0.24697403
v 0.18164499 0.06833207 0.24957282
v 0.18164499 0.11044773 0.24957282
v 0.17980737 0.07016967 0.24697403
v 0.17098905 0.11450232 0.24697403
v 0.17198357 0.06187649 0.24957282
v 0.17198357 0.11690330 0.24957282
v 0.17098906 0.06427748 0.24697403
v 0.16058714 0.11657138 0.24697403
v 0.16058714 0.05960955 0.24957282
v 0.16058714 0.11917016 0.24957282
v 0.16058714 0.06220834 0.24697403
v 0.15018524 0.11450232 0.24697403
v 0.14919072 0.06187649 0.24957282
v 0.14919072 0.11690330 0.24957282
v 0.15018524 0.06427748 0.24697403
v 0.14136692 0.10861013 0.24697403
v 0.13952930 0.06833207 0.24957282
v 0.13952931 0.11044773 0.24957282
v 0.14136691 0.07016967 0.24697403
v 0.13547471 0.09979181 0.24697403
v 0.13307375 0.07799348 0.24957282
v 0.13307375 0.10078632 0.24957282
v 0.13547471 0.07898799 0.24697403
v 0.13340564 0.08938990 0.24697403
v 0.13080686 0.08938990 0.24957282
v 0.18776864 0.08938990 0.24697403
v 0.16058714 0.08938990 0.24697403
v 0.18569959 0.09979181 0.24697403
v 0.17980737 0.10861013 0.24697403
v 0.18569959 0.07898799 0.24697403
v 0.17098905 0.11450232 0.24697403
v 0.17980737 0.07016967 0.24697403
v 0.16058714 0.11657138 0.24697403
v 0.17098906 0.06427748 0.24697403
v 0.15018524 0.11450232 0.24697403
v 0.16058714 0.06220834 0.24697403
v 0.14136692 0.10861013 0.24697403
v 0.15018524 0.06427748 0.24697403
v 0.13547471 0.09979181 0.24697403
v 0.14136691 0.07016967 0.24697403
v 0.13340564 0.08938990 0.24697403
v 0.13547471 0.07898799 0.24697403
vn 0.00000016 0.00000003 -1.00000000
vn 0.00000016 0.00000003 -1.00000000
vn 0.00000016 0.00000003 -1.00000000
vn 0.00000016 0.00000003 -1.00000000
vn 0.00000015 -0.99491210 0.10074675
vn 0.00000015 -0.99491210 0.10074674
vn 0.00000015 -0.99491210 0.10074675
vn 0.00000015 -0.99491210 0.10074674
vn 0.00000006 -0.86092288 0.50873548
vn 0.00000006 -0.86092288 0.50873548
vn 0.00000006 -0.86092288 0.50873548
vn 0.00000006 -0.86092288 0.50873548
vn -0.00000016 -0.00000003 1.00000000
vn -0.00000016 -0.00000003 1.00000000
vn -0.00000016 -0.00000003 1.00000000
vn -0.00000016 -0.00000003 1.00000000
vn -0.00000022 0.52145071 0.85328140
vn -0.00000022 0.52145071 0.85328140
vn -0.00000022 0.52145071 0.85328140
vn -0.00000022 0.52145071 0.85328140
vn -0.00000023 0.79740656 0.60344244
vn -0.00000023 0.79740661 0.60344237
vn -0.00000023 0.79740656 0.60344244
vn -0.00000023 0.79740656 0.60344244
vn -0.00000020 0.96152324 0.27472359
vn -0.00000020 0.96152327 0.27472349
vn -0.00000020 0.96152327 0.27472349
vn -0.00000020 0.96152327 0.27472349
vn 1.00000000 0.00000016 0.00000016
vn 1.00000000 0.00000016 0.00000016
vn 1.00000000 0.00000016 0.00000016
vn 1.00000000 0.00000016 0.00000016
vn 1.00000000 0.00000016 0.00000016
vn 1.00000000 0.00000016 0.00000016
vn 1.00000000 0.00000016 0.00000016
vn -1.00000000 -0.00000016 -0.00000016
vn -1.00000000 -0.00000016 -0.00000016
vn -1.00000000 -0.00000016 -0.00000016
vn -1.00000000 -0.00000016 -0.00000016
vn -1.00000000 -0.00000016 -0.00000016
vn -1.00000000 -0.00000016 -0.00000016
vn -1.00000000 -0.00000016 -0.00000016
vn 0.00000000 -0.00000004 1.00000000
vn 0.00000000 -0.00000004 1.00000000
vn 0.00000000 -0.00000004 1.00000000
vn 0.00000000 -0.00000004 1.00000000
vn 0.00000000 -0.00000004 1.00000000
vn 0.00000000 -0.00000004 1.00000000
vn 0.00000000 -0.00000004 1.00000000
vn 0.00000000 -0.00000004 1.00000000
vn 0.00000000 -0.00000004 1.00000000
vn 0.00000000 -0.00000004 1.00000000
vn 0.00000000 -0.00000004 1.00000000
vn 0.00000000 -0.00000004 1.00000000
vn 0.00000000 -0.00000004 1.00000000
vn 0.00000000 -0.00000004 1.00000000
vn 0.00000000 -0.00000004 1.00000000
vn 0.00000000 -0.00000004 1.00000000
vn 0.00000000 -0.00000004 1.00000000
vn 0.70710678 0.00000009 0.70710678
vn 0.70710678 0.00000006 0.70710678
vn 0.65328138 0.27059802 0.70710688
vn 0.65328152 -0.27059779 0.70710684
vn 0.65328144 0.27059805 0.70710682
vn 0.65328155 -0.27059781 0.70710681
vn 0.50000019 0.50000007 0.70710660
vn 0.50000018 -0.50000000 0.70710665
vn 0.50000019 0.50000007 0.70710660
vn 0.50000023 -0.49999996 0.70710664
vn 0.27059796 0.65328137 0.70710692
vn 0.27059817 -0.65328139 0.70710682
vn 0.27059793 0.65328137 0.70710693
vn 0.27059811 -0.65328127 0.70710695
vn 0.00000002 0.70710675 0.70710681
vn 0.00000002 -0.70710678 0.70710678
vn 0.00000006 0.70710672 0.70710684
vn 0.00000002 -0.70710681 0.70710675
vn -0.27059806 0.65328135 0.70710690
vn -0.27059808 -0.65328131 0.70710693
vn -0.27059806 0.65328135 0.70710690
vn -0.27059803 -0.65328135 0.70710691
vn -0.50000008 0.50000008 0.70710667
vn -0.50000018 -0.49999983 0.70710678
vn -0.50000011 0.50000011 0.70710663
vn -0.50000006 -0.49999994 0.70710678
vn -0.65328145 0.27059800 0.70710683
vn -0.65328174 -0.27059793 0.70710658
vn -0.65328140 0.27059797 0.70710689
vn -0.65328173 -0.27059799 0.70710657
vn -0.70710678 0.00000006 0.70710678
vn -0.70710678 0.00000008 0.70710678
vn 1.00000000 0.00000014 0.00000000
vn 1.00000000 0.00000015 0.00000000
vn 0.92387953 0.38268344 0.00000002
vn 0.92387967 -0.38268309 -0.00000002
vn 0.92387953 0.38268344 0.00000002
vn 0.92387967 -0.38268309 -0.00000002
vn 0.70710678 0.70710678 0.00000003
vn 0.70710696 -0.70710660 -0.00000003
vn 0.70710678 0.70710678 0.00000003
vn 0.70710702 -0.70710654 -0.00000003
vn 0.38268344 0.92387953 0.00000004
vn 0.38268364 -0.92387945 -0.00000004
vn 0.38268339 0.92387955 0.00000004
vn 0.38268364 -0.92387945 -0.00000004
vn 0.00000001 1.00000000 0.00000004
vn 0.00000008 -1.00000000 -0.00000004
vn -0.00000001 1.00000000 0.00000004
vn 0.00000009 -1.00000000 -0.00000004
vn -0.38268351 0.92387950 0.00000004
vn -0.38268356 -0.92387948 -0.00000004
vn -0.38268351 0.92387950 0.00000004
vn -0.38268356 -0.92387948 -0.00000004
vn -0.70710678 0.70710678 0.00000003
vn -0.70710702 -0.70710654 -0.00000003
vn -0.70710678 0.70710678 0.00000003
vn -0.70710702 -0.70710654 -0.00000003
vn -0.92387949 0.38268354 0.00000002
vn -0.92387963 -0.38268319 -0.00000002
vn -0.92387952 0.38268346 0.00000002
vn -0.92387964 -0.38268317 -0.00000002
vn -1.00000000 0.00000009 0.00000000
vn -1.00000000 0.00000008 0.00000000
vn 0.70710678 0.00000016 -0.70710678
vn 0.70710678 0.00000017 -0.70710678
vn 0.65328145 0.27059802 -0.70710682
vn 0.65328156 -0.27059775 -0.70710682
vn 0.65328151 0.27059800 -0.70710677
vn 0.65328151 -0.27059785 -0.70710683
vn 0.50000007 0.50000019 -0.70710660
vn 0.50000029 -0.49999990 -0.70710664
vn 0.50000006 0.50000012 -0.70710665
vn 0.50000031 -0.49999986 -0.70710666
vn 0.27059803 0.65328135 -0.70710691
vn 0.27059803 -0.65328135 -0.70710691
vn 0.27059805 0.65328132 -0.70710693
vn 0.27059805 -0.65328132 -0.70710693
vn -0.00000002 0.70710681 -0.70710675
vn 0.00000010 -0.70710675 -0.70710681
vn -0.00000000 0.70710681 -0.70710675
vn 0.00000011 -0.70710675 -0.70710681
vn -0.27059799 0.65328139 -0.70710689
vn -0.27059808 -0.65328131 -0.70710693
vn -0.27059802 0.65328145 -0.70710682
vn -0.27059811 -0.65328127 -0.70710695
vn -0.50000017 0.50000005 -0.70710663
vn -0.50000007 -0.49999986 -0.70710684
vn -0.50000017 0.50000005 -0.70710663
vn -0.50000011 -0.49999975 -0.70710688
vn -0.65328132 0.27059817 -0.70710688
vn -0.65328168 -0.27059793 -0.70710664
vn -0.65328146 0.27059809 -0.70710678
vn -0.65328169 -0.27059790 -0.70710665
vn -0.70710675 0.00000015 -0.70710681
vn -0.70710678 0.00000014 -0.70710678
vn 0.00000000 0.00000004 -1.00000000
vn 0.00000000 0.00000004 -1.00000000
vn 0.00000000 0.00000004 -1.00000000
vn 0.00000000 0.00000004 -1.00000000
vn 0.00000000 0.00000004 -1.00000000
vn 0.00000000 0.00000004 -1.00000000
vn 0.00000000 0.00000004 -1.00000000
vn 0.00000000 0.00000004 -1.00000000
vn 0.00000000 0.00000004 -1.00000000
vn 0.00000000 0.00000004 -1.00000000
vn 0.00000000 0.00000004 -1.00000000
vn 0.00000000 0.00000004 -1.00000000
vn 0.00000000 0.00000004 -1.00000000
vn 0.00000000 0.00000004 -1.00000000
vn 0.00000000 0.00000004 -1.00000000
vn 0.00000000 0.00000004 -1.00000000
vn 0.00000000 0.00000004 -1.00000000
f 1//1 2//2 3//3
f 1//1 3//3 4//4
f 5//5 6//6 7//7
f 5//5 7//7 8//8
f 9//9 10//10 11//11
f 9//9 11//11 12//12
f 13//13 14//14 15//15
f 13//13 15//15 16//16
f 17//17 18//18 19//19
f 17//17 19//19 20//20
f 21//21 22//22 23//23
f 21//21 23//23 24//24
f 25//25 26//26 27//27
f 25//25 27//27 28//28
f 29//29 30//30 31//31
f 32//32 30//30 29//29
f 33//33 30//30 32//32
f 34//34 30//30 33//33
f 34//34 35//35 30//30
f 36//36 37//37 38//38
f 39//39 36//36 38//38
f 40//40 39//39 38//38
f 41//41 40//40 38//38
f 41//41 38//38 42//42
f 43//43 44//44 45//45
f 43//43 46//46 44//44
f 43//43 45//45 47//47
f 43//43 48//48 46//46
f 43//43 47//47 49//49
f 43//43 50//50 48//48
f 43//43 49//49 51//51
f 43//43 52//52 50//50
f 43//43 51//51 53//53
f 43//43 54//54 52//52
f 43//43 53//53 55//55
f 43//43 56//56 54//54
f 43//43 55//55 57//57
f 43//43 58//58 56//56
f 43//43 57//57 59//59
f 43//43 59//59 58//58
f 60//60 61//61 62//62
f 63//63 61//61 60//60
f 60//60 62//62 64//64
f 63//63 65//65 61//61
f 64//64 62//62 66//66
f 67//67 65//65 63//63
f 64//64 66//66 68//68
f 67//67 69//69 65//65
f 68//68 66//66 70//70
f 71//71 69//69 67//67
f 68//68 70//70 72//72
f 71//71 73//73 69//69
f 72//72 70//70 74//74
f 75//75 73//73 71//71
f 72//72 74//74 76//76
f 75//75 77//77 73//73
f 76//76 74//74 78//78
f 79//79 77//77 75//75
f 76//76 78//78 80//80
f 79//79 81//81 77//77
f 80//80 78//78 82//82
f 83//83 81//81 79//79
f 80//80 82//82 84//84
f 83//83 85//85 81//81
f 84//84 82//82 86//86
f 87//87 85//85 83//83
f 84//84 86//86 88//88
f 87//87 89//89 85//85
f 88//88 86//86 90//90
f 91//91 89//89 87//87
f 88//88 90//90 91//91
f 91//91 90//90 89//89
f 92//92 93//93 94//94
f 95//95 93//93 92//92
f 92//92 94//94 96//96
f 95//95 97//97 93//93
f 96//96 94//94 98//98
f 99//99 97//97 95//95
f 96//96 98//98 100//100
f 99//99 101//101 97//97
f 100//100 98//98 102//102
f 103//103 101//101 99//99
f 100//100 102//102 104//104
f 103//103 105//105 101//101
f 104//104 102//102 106//106
f 107//107 105//105 103//103
f 104//104 106//106 108//108
f 107//107 109//109 105//105
f 108//108 106//106 110//110
f 111//111 109//109 107//107
f 108//108 110//110 112//112
f 111//111 113//113 109//109
f 112//112 110//110 114//114
f 115//115 113//113 111//111
f 112//112 114//114 116//116
f 115//115 117//117 113//113
f 116//116 114//114 118//118
f 119//119 117//117 115//115
f 116//116 118//118 120//120
f 119//119 121//121 117//117
f 120//120 118//118 122//122
f 123//123 121//121 119//119
f 120//120 122//122 123//123
f 123//123 122//122 121//121
f 124//124 125//125 126//126
f 127//127 125//125 124//124
f 124//124 126//126 128//128
f 127//127 129//129 125//125
f 128//128 126//126 130//130
f 131//131 129//129 127//127
f 128//128 130//130 132//132
f 131//131 133//133 129//129
f 132//132 130//130 134//134
f 135//135 133//133 131//131
f 132//132 134//134 136//136
f 135//135 137//137 133//133
f 136//136 134//134 138//138
f 139//139 137//137 135//135
f 136//136 138//138 140//140
f 139//139 141//141 137//137
f 140//140 138//138 142//142
f 143//143 141//141 139//139
f 140//140 142//142 144//144
f 143//143 145//145 141//141
f 144//144 142//142 146//146
f 147//147 145//145 143//143
f 144//144 146//146 148//148
f 147//147 149//149 145//145
f 148//148 146//146 150//150
f 151//151 149//149 147//147
f 148//148 150//150 152//152
f 151//151 153//153 149//149
f 152//152 150//150 154//154
f 155//155 153//153 151//151
f 152//152 154//154 155//155
f 155//155 154//154 153//153
f 156//156 157//157 158//158
f 158//158 157//157 159//159
f 160//160 157//157 156//156
f 159//159 157//157 161//161
f 162//162 157//157 160//160
f 161//161 157//157 163//163
f 164//164 157//157 162//162
f 163//163 157//157 165//165
f 166//166 157//157 164//164
f 165//165 157//157 167//167
f 168//168 157//157 166//166
f 167//167 157//157 169//169
f 170//170 157//157 168//168
f 169//169 157//157 171//171
f 172//172 157//157 170//170
f 171//171 157//157 172//172

