# https://github.com/mikedh/trimesh
mtllib 128b5f2d072869004b7a218ab674f93f73a66670_part_3.mtl
usemtl material_0
v 0.23618971 0.50536172 0.14015913
v 0.23618964 0.50536172 0.13424942
v 0.00445808 0.50536172 0.13424942
v 0.00445816 0.50536172 0.14015913
v 0.00445816 -0.25973552 0.14238818
v 0.23618981 -0.25973546 0.14238818
v 0.23618971 0.50322785 0.14238821
v 0.00445816 0.50322798 0.14238821
v 0.23841886 -0.25973546 0.14015908
v 0.23841893 -0.25973552 0.13424938
v 0.23841878 0.50322785 0.13424942
v 0.23841886 0.50322785 0.14015913
v 0.00445816 -0.26186942 0.13424938
v 0.23618971 -0.26186942 0.13424938
v 0.23618981 -0.26186942 0.14015908
v 0.00445816 -0.26186942 0.14015908
v 0.00445816 -0.25973552 0.13202029
v 0.00445816 0.50322785 0.13202032
v 0.23618964 0.50322773 0.13202032
v 0.23618964 -0.25973552 0.13202029
v 0.00222910 0.50322785 0.14015913
v 0.00222910 0.50322773 0.13424942
v 0.00222902 -0.25973552 0.13424938
v 0.00222910 -0.25973546 0.14015908
v 0.23618971 0.50536172 0.14015913
v 0.23618971 0.50322785 0.14238821
v 0.23841886 0.50322785 0.14015913
v 0.23841878 0.50322785 0.13424942
v 0.23618964 0.50322773 0.13202032
v 0.23618964 0.50536172 0.13424942
v 0.23841893 -0.25973552 0.13424938
v 0.23618971 -0.26186942 0.13424938
v 0.23618964 -0.25973552 0.13202029
v 0.23618981 -0.25973546 0.14238818
v 0.23618981 -0.26186942 0.14015908
v 0.23841886 -0.25973546 0.14015908
v 0.00445816 0.50536172 0.14015913
v 0.00222910 0.50322785 0.14015913
v 0.00445816 0.50322798 0.14238821
v 0.00445816 -0.26186942 0.13424938
v 0.00222902 -0.25973552 0.13424938
v 0.00445816 -0.25973552 0.13202029
v 0.00445816 -0.25973552 0.14238818
v 0.00222910 -0.25973546 0.14015908
v 0.00445816 -0.26186942 0.14015908
v 0.00445816 0.50322785 0.13202032
v 0.00222910 0.50322773 0.13424942
v 0.00445808 0.50536172 0.13424942
v 0.00445816 0.50536172 0.14015913
v 0.00445816 0.50322798 0.14238821
v 0.23618971 0.50322785 0.14238821
v 0.23618971 0.50536172 0.14015913
v 0.23841893 -0.25973552 0.13424938
v 0.23618964 -0.25973552 0.13202029
v 0.23618964 0.50322773 0.13202032
v 0.23618964 0.50322773 0.13202032
v 0.23841878 0.50322785 0.13424942
v 0.23841893 -0.25973552 0.13424938
v 0.23841878 0.50322785 0.13424942
v 0.23618964 0.50536172 0.13424942
v 0.23618971 0.50536172 0.14015913
v 0.23618971 0.50536172 0.14015913
v 0.23841886 0.50322785 0.14015913
v 0.23841878 0.50322785 0.13424942
v 0.23841886 0.50322785 0.14015913
v 0.23618971 0.50322785 0.14238821
v 0.23618981 -0.25973546 0.14238818
v 0.23618981 -0.25973546 0.14238818
v 0.23841886 -0.25973546 0.14015908
v 0.23841886 0.50322785 0.14015913
v 0.00445816 -0.26186942 0.13424938
v 0.00445816 -0.25973552 0.13202029
v 0.23618964 -0.25973552 0.13202029
v 0.23618971 -0.26186942 0.13424938
v 0.23618971 -0.26186942 0.13424938
v 0.23841893 -0.25973552 0.13424938
v 0.23841886 -0.25973546 0.14015908
v 0.23841886 -0.25973546 0.14015908
v 0.23618981 -0.26186942 0.14015908
v 0.23618971 -0.26186942 0.13424938
v 0.23618964 0.50536172 0.13424942
v 0.23618964 0.50322773 0.13202032
v 0.00445816 0.50322785 0.13202032
v 0.00445808 0.50536172 0.13424942
v 0.23618981 -0.26186942 0.14015908
v 0.23618981 -0.25973546 0.14238818
v 0.00445816 -0.25973552 0.14238818
v 0.00445816 -0.26186942 0.14015908
v 0.00222910 0.50322785 0.14015913
v 0.00445816 0.50536172 0.14015913
v 0.00445808 0.50536172 0.13424942
v 0.00222910 0.50322773 0.13424942
v 0.00222910 -0.25973546 0.14015908
v 0.00445816 -0.25973552 0.14238818
v 0.00445816 0.50322798 0.14238821
v 0.00222910 0.50322785 0.14015913
v 0.00222902 -0.25973552 0.13424938
v 0.00445816 -0.26186942 0.13424938
v 0.00445816 -0.26186942 0.14015908
v 0.00222910 -0.25973546 0.14015908
v 0.00222910 0.50322773 0.13424942
v 0.00445816 0.50322785 0.13202032
v 0.00445816 -0.25973552 0.13202029
v 0.00222902 -0.25973552 0.13424938
vn 0.00000001 1.00000000 0.00001317
vn 0.00000000 1.00000000 0.00001338
vn 0.00000034 1.00000000 0.00000022
vn 0.00000034 1.00000000 0.00000000
vn 0.00000000 -0.00000004 1.00000000
vn 0.00000000 -0.00000004 1.00000000
vn 0.00000000 -0.00000004 1.00000000
vn 0.00000000 -0.00000004 1.00000000
vn 1.00000000 0.00000021 0.00001338
vn 1.00000000 0.00000021 0.00001338
vn 1.00000000 0.00000021 0.00001338
vn 1.00000000 0.00000000 -0.00001338
vn 0.00000000 -1.00000000 0.00000000
vn 0.00000000 -1.00000000 0.00000000
vn 0.00000000 -1.00000000 0.00000000
vn 0.00000000 -1.00000000 0.00000000
vn 0.00000000 0.00000004 -1.00000000
vn 0.00000000 0.00000004 -1.00000000
vn 0.00000000 0.00000004 -1.00000000
vn 0.00000000 0.00000004 -1.00000000
vn -1.00000000 0.00000010 0.00000000
vn -1.00000000 0.00000010 0.00000000
vn -1.00000000 0.00000010 0.00000000
vn -1.00000000 0.00000000 0.00001338
vn 0.56875330 0.59415912 0.56876588
vn 0.56875330 0.59415912 0.56876588
vn 0.56875330 0.59415912 0.56876588
vn 0.56875474 0.59413857 -0.56878591
vn 0.56875474 0.59413857 -0.56878591
vn 0.56875474 0.59413857 -0.56878591
vn 0.56874134 -0.59414573 -0.56879182
vn 0.56874134 -0.59414573 -0.56879182
vn 0.56874134 -0.59414573 -0.56879182
vn 0.56878258 -0.59412469 0.56877257
vn 0.56878258 -0.59412469 0.56877257
vn 0.56878258 -0.59412469 0.56877257
vn -0.56878120 0.59414513 0.56875259
vn -0.56878120 0.59414513 0.56875259
vn -0.56878120 0.59414513 0.56875259
vn -0.56876154 -0.59414573 -0.56877162
vn -0.56876154 -0.59414573 -0.56877162
vn -0.56876154 -0.59414573 -0.56877162
vn -0.56878947 -0.59413170 0.56875836
vn -0.56878947 -0.59413170 0.56875836
vn -0.56878947 -0.59413170 0.56875836
vn -0.56879657 0.59411811 -0.56876545
vn -0.56879657 0.59411811 -0.56876545
vn -0.56879657 0.59411811 -0.56876545
vn 0.00000025 0.72237471 0.69150183
vn 0.00000025 0.72237471 0.69150183
vn 0.00000025 0.72237471 0.69150183
vn 0.00000025 0.72237471 0.69150183
vn 0.70707543 0.00000003 -0.70713813
vn 0.70707543 0.00000003 -0.70713813
vn 0.70707543 0.00000003 -0.70713813
vn 0.70710055 0.00000017 -0.70711301
vn 0.70710055 0.00000017 -0.70711301
vn 0.70710055 0.00000017 -0.70711301
vn 0.69150716 0.72236961 0.00000041
vn 0.69150716 0.72236961 0.00000041
vn 0.69150716 0.72236961 0.00000041
vn 0.69149382 0.72238238 -0.00000926
vn 0.69149382 0.72238238 -0.00000926
vn 0.69149382 0.72238238 -0.00000926
vn 0.70709894 0.00000005 0.70711462
vn 0.70709894 0.00000005 0.70711462
vn 0.70709894 0.00000005 0.70711462
vn 0.70711307 -0.00000004 0.70710049
vn 0.70711307 -0.00000004 0.70710049
vn 0.70711307 -0.00000004 0.70710049
vn 0.00000000 -0.72236343 -0.69151361
vn 0.00000000 -0.72236343 -0.69151361
vn 0.00000000 -0.72236343 -0.69151361
vn 0.00000000 -0.72236343 -0.69151361
vn 0.69149440 -0.72238182 0.00001892
vn 0.69149440 -0.72238182 0.00001892
vn 0.69149440 -0.72238182 0.00001892
vn 0.69153338 -0.72234451 -0.00000926
vn 0.69153338 -0.72234451 -0.00000926
vn 0.69153338 -0.72234451 -0.00000926
vn 0.00000025 0.72235066 -0.69152695
vn 0.00000025 0.72235066 -0.69152695
vn 0.00000025 0.72235066 -0.69152695
vn 0.00000000 0.72236343 -0.69151361
vn 0.00000025 -0.72235066 0.69152695
vn 0.00000025 -0.72235066 0.69152695
vn 0.00000025 -0.72235066 0.69152695
vn 0.00000000 -0.72236343 0.69151361
vn -0.69152001 0.72235731 0.00000926
vn -0.69152001 0.72235731 0.00000926
vn -0.69152001 0.72235731 0.00000926
vn -0.69154620 0.72233223 -0.00000967
vn -0.70711304 -0.00000003 0.70710052
vn -0.70711304 -0.00000003 0.70710052
vn -0.70711304 -0.00000003 0.70710052
vn -0.70711149 -0.00000004 0.70710207
vn -0.69150716 -0.72236961 0.00000000
vn -0.69150716 -0.72236961 0.00000000
vn -0.69150716 -0.72236961 0.00000000
vn -0.69153338 -0.72234451 0.00001892
vn -0.70711307 0.00000003 -0.70710049
vn -0.70711307 0.00000003 -0.70710049
vn -0.70711307 0.00000003 -0.70710049
vn -0.70710055 0.00000010 -0.70711301
f 1//1 2//2 3//3
f 3//3 4//4 1//1
f 5//5 6//6 7//7
f 7//7 8//8 5//5
f 9//9 10//10 11//11
f 11//11 12//12 9//9
f 13//13 14//14 15//15
f 15//15 16//16 13//13
f 17//17 18//18 19//19
f 19//19 20//20 17//17
f 21//21 22//22 23//23
f 23//23 24//24 21//21
f 25//25 26//26 27//27
f 28//28 29//29 30//30
f 31//31 32//32 33//33
f 34//34 35//35 36//36
f 37//37 38//38 39//39
f 40//40 41//41 42//42
f 43//43 44//44 45//45
f 46//46 47//47 48//48
f 49//49 50//50 51//51
f 51//51 52//52 49//49
f 53//53 54//54 55//55
f 56//56 57//57 58//58
f 59//59 60//60 61//61
f 62//62 63//63 64//64
f 65//65 66//66 67//67
f 68//68 69//69 70//70
f 71//71 72//72 73//73
f 73//73 74//74 71//71
f 75//75 76//76 77//77
f 78//78 79//79 80//80
f 81//81 82//82 83//83
f 83//83 84//84 81//81
f 85//85 86//86 87//87
f 87//87 88//88 85//85
f 89//89 90//90 91//91
f 91//91 92//92 89//89
f 93//93 94//94 95//95
f 95//95 96//96 93//93
f 97//97 98//98 99//99
f 99//99 100//100 97//97
f 101//101 102//102 103//103
f 103//103 104//104 101//101

