# https://github.com/mikedh/trimesh
mtllib 128b5f2d072869004b7a218ab674f93f73a66670_part_2.mtl
usemtl material_0
v 0.24531353 0.50322785 0.14238821
v 0.24531353 -0.56106696 0.14238818
v 0.47821141 -0.56106696 0.14238818
v 0.47821141 0.50322785 0.14238821
v 0.24531353 -0.56106703 0.13202027
v 0.24531345 0.50322773 0.13202032
v 0.47821135 0.50322773 0.13202032
v 0.47821141 -0.56106696 0.13202027
v 0.24531353 -0.56320086 0.14015908
v 0.24531345 -0.56320086 0.13424937
v 0.47821135 -0.56320086 0.13424937
v 0.47821141 -0.56320086 0.14015908
v 0.24531345 0.50536172 0.13424942
v 0.24531353 0.50536172 0.14015913
v 0.47821150 0.50536172 0.14015913
v 0.47821141 0.50536172 0.13424942
v 0.24308438 -0.56106703 0.14015908
v 0.24308438 0.50322785 0.14015913
v 0.24308431 0.50322773 0.13424942
v 0.24308438 -0.56106703 0.13424937
v 0.48044048 0.50322773 0.14015913
v 0.48044048 -0.56106696 0.14015908
v 0.48044057 -0.56106696 0.13424937
v 0.48044048 0.50322773 0.13424942
v 0.24308438 -0.56106703 0.14015908
v 0.24531353 -0.56320086 0.14015908
v 0.24531353 -0.56106696 0.14238818
v 0.24531353 0.50322785 0.14238821
v 0.24531353 0.50536172 0.14015913
v 0.24308438 0.50322785 0.14015913
v 0.24531345 0.50536172 0.13424942
v 0.24531345 0.50322773 0.13202032
v 0.24308431 0.50322773 0.13424942
v 0.24308438 -0.56106703 0.13424937
v 0.24531353 -0.56106703 0.13202027
v 0.24531345 -0.56320086 0.13424937
v 0.47821141 0.50322785 0.14238821
v 0.48044048 0.50322773 0.14015913
v 0.47821150 0.50536172 0.14015913
v 0.47821141 -0.56106696 0.13202027
v 0.48044057 -0.56106696 0.13424937
v 0.47821135 -0.56320086 0.13424937
v 0.47821141 -0.56320086 0.14015908
v 0.48044048 -0.56106696 0.14015908
v 0.47821141 -0.56106696 0.14238818
v 0.47821141 0.50536172 0.13424942
v 0.48044048 0.50322773 0.13424942
v 0.47821135 0.50322773 0.13202032
v 0.47821141 -0.56320086 0.14015908
v 0.47821141 -0.56106696 0.14238818
v 0.24531353 -0.56106696 0.14238818
v 0.24531353 -0.56320086 0.14015908
v 0.47821141 0.50536172 0.13424942
v 0.47821135 0.50322773 0.13202032
v 0.24531345 0.50322773 0.13202032
v 0.24531345 0.50536172 0.13424942
v 0.24308438 -0.56106703 0.14015908
v 0.24531353 -0.56106696 0.14238818
v 0.24531353 0.50322785 0.14238821
v 0.24531353 0.50322785 0.14238821
v 0.24308438 0.50322785 0.14015913
v 0.24308438 -0.56106703 0.14015908
v 0.24308431 0.50322773 0.13424942
v 0.24531345 0.50322773 0.13202032
v 0.24531353 -0.56106703 0.13202027
v 0.24308438 -0.56106703 0.13424937
v 0.24308438 -0.56106703 0.13424937
v 0.24531345 -0.56320086 0.13424937
v 0.24531353 -0.56320086 0.14015908
v 0.24531353 -0.56320086 0.14015908
v 0.24308438 -0.56106703 0.14015908
v 0.24308438 -0.56106703 0.13424937
v 0.24308438 0.50322785 0.14015913
v 0.24531353 0.50536172 0.14015913
v 0.24531345 0.50536172 0.13424942
v 0.24308431 0.50322773 0.13424942
v 0.24531353 0.50536172 0.14015913
v 0.24531353 0.50322785 0.14238821
v 0.47821141 0.50322785 0.14238821
v 0.47821150 0.50536172 0.14015913
v 0.24531345 -0.56320086 0.13424937
v 0.24531353 -0.56106703 0.13202027
v 0.47821141 -0.56106696 0.13202027
v 0.47821135 -0.56320086 0.13424937
v 0.48044048 0.50322773 0.14015913
v 0.47821141 0.50322785 0.14238821
v 0.47821141 -0.56106696 0.14238818
v 0.48044048 -0.56106696 0.14015908
v 0.48044057 -0.56106696 0.13424937
v 0.47821141 -0.56106696 0.13202027
v 0.47821135 0.50322773 0.13202032
v 0.48044048 0.50322773 0.13424942
v 0.48044048 -0.56106696 0.14015908
v 0.47821141 -0.56320086 0.14015908
v 0.47821135 -0.56320086 0.13424937
v 0.47821135 -0.56320086 0.13424937
v 0.48044057 -0.56106696 0.13424937
v 0.48044048 -0.56106696 0.14015908
v 0.48044048 0.50322773 0.13424942
v 0.47821141 0.50536172 0.13424942
v 0.47821150 0.50536172 0.14015913
v 0.48044048 0.50322773 0.14015913
vn 0.00000000 -0.00000004 1.00000000
vn 0.00000000 -0.00000004 1.00000000
vn 0.00000000 -0.00000004 1.00000000
vn 0.00000000 -0.00000004 1.00000000
vn 0.00000000 0.00000004 -1.00000000
vn 0.00000000 0.00000004 -1.00000000
vn 0.00000000 0.00000004 -1.00000000
vn 0.00000000 0.00000004 -1.00000000
vn 0.00000000 -1.00000000 0.00000000
vn 0.00000000 -1.00000000 0.00000000
vn 0.00000000 -1.00000000 0.00000000
vn 0.00000000 -1.00000000 0.00000000
vn 0.00000000 1.00000000 0.00000000
vn 0.00000000 1.00000000 0.00000000
vn 0.00000000 1.00000000 0.00000000
vn 0.00000000 1.00000000 0.00000000
vn -1.00000000 0.00000000 0.00001338
vn -1.00000000 0.00000000 0.00001338
vn -1.00000000 0.00000000 0.00001338
vn -1.00000000 -0.00000007 0.00000000
vn 1.00000000 0.00000000 0.00001338
vn 1.00000000 0.00000000 0.00001338
vn 1.00000000 0.00000000 0.00001338
vn 1.00000000 0.00000007 0.00000000
vn -0.56874727 -0.59415286 0.56877845
vn -0.56874727 -0.59415286 0.56877845
vn -0.56874727 -0.59415286 0.56877845
vn -0.56876074 0.59414487 0.56877332
vn -0.56876074 0.59414487 0.56877332
vn -0.56876074 0.59414487 0.56877332
vn -0.56876899 0.59413148 -0.56877906
vn -0.56876899 0.59413148 -0.56877906
vn -0.56876899 0.59413148 -0.56877906
vn -0.56876122 -0.59414636 -0.56877129
vn -0.56876122 -0.59414636 -0.56877129
vn -0.56876122 -0.59414636 -0.56877129
vn 0.56879574 0.59411723 0.56876719
vn 0.56879574 0.59411723 0.56876719
vn 0.56879574 0.59411723 0.56876719
vn 0.56875437 -0.59415936 -0.56876456
vn 0.56875437 -0.59415936 -0.56876456
vn 0.56875437 -0.59415936 -0.56876456
vn 0.56877518 -0.59413892 0.56876510
vn 0.56877518 -0.59413892 0.56876510
vn 0.56877518 -0.59413892 0.56876510
vn 0.56877609 0.59411784 -0.56878622
vn 0.56877609 0.59411784 -0.56878622
vn 0.56877609 0.59411784 -0.56878622
vn 0.00000000 -0.72236349 0.69151355
vn 0.00000000 -0.72236349 0.69151355
vn 0.00000000 -0.72236349 0.69151355
vn 0.00000000 -0.72236349 0.69151355
vn 0.00000000 0.72235066 -0.69152695
vn 0.00000000 0.72235066 -0.69152695
vn 0.00000000 0.72235066 -0.69152695
vn 0.00000000 0.72235066 -0.69152695
vn -0.70710049 -0.00000003 0.70711307
vn -0.70710049 -0.00000003 0.70711307
vn -0.70710049 -0.00000003 0.70711307
vn -0.70709894 -0.00000003 0.70711462
vn -0.70709894 -0.00000003 0.70711462
vn -0.70709894 -0.00000003 0.70711462
vn -0.70710049 -0.00000003 -0.70711307
vn -0.70710049 -0.00000003 -0.70711307
vn -0.70710049 -0.00000003 -0.70711307
vn -0.70710049 -0.00000003 -0.70711307
vn -0.69150661 -0.72237013 0.00000926
vn -0.69150661 -0.72237013 0.00000926
vn -0.69150661 -0.72237013 0.00000926
vn -0.69149382 -0.72238238 0.00000000
vn -0.69149382 -0.72238238 0.00000000
vn -0.69149382 -0.72238238 0.00000000
vn -0.69150716 0.72236961 0.00000926
vn -0.69150716 0.72236961 0.00000926
vn -0.69150716 0.72236961 0.00000926
vn -0.69152059 0.72235675 -0.00000041
vn 0.00000000 0.72236191 0.69151520
vn 0.00000000 0.72236191 0.69151520
vn 0.00000000 0.72236191 0.69151520
vn 0.00000000 0.72236188 0.69151523
vn 0.00000025 -0.72237628 -0.69150018
vn 0.00000025 -0.72237628 -0.69150018
vn 0.00000025 -0.72237628 -0.69150018
vn 0.00000000 -0.72236349 -0.69151355
vn 0.70711149 -0.00000003 0.70710207
vn 0.70711149 -0.00000003 0.70710207
vn 0.70711149 -0.00000003 0.70710207
vn 0.70711301 -0.00000003 0.70710055
vn 0.70710049 0.00000008 -0.70711307
vn 0.70710049 0.00000008 -0.70711307
vn 0.70710049 0.00000008 -0.70711307
vn 0.70710049 0.00000008 -0.70711307
vn 0.69151998 -0.72235734 -0.00000926
vn 0.69151998 -0.72235734 -0.00000926
vn 0.69151998 -0.72235734 -0.00000926
vn 0.69149440 -0.72238182 0.00000926
vn 0.69149440 -0.72238182 0.00000926
vn 0.69149440 -0.72238182 0.00000926
vn 0.69153338 0.72234451 -0.00000926
vn 0.69153338 0.72234451 -0.00000926
vn 0.69153338 0.72234451 -0.00000926
vn 0.69154620 0.72233223 0.00000000
f 1//1 2//2 3//3
f 3//3 4//4 1//1
f 5//5 6//6 7//7
f 7//7 8//8 5//5
f 9//9 10//10 11//11
f 11//11 12//12 9//9
f 13//13 14//14 15//15
f 15//15 16//16 13//13
f 17//17 18//18 19//19
f 19//19 20//20 17//17
f 21//21 22//22 23//23
f 23//23 24//24 21//21
f 25//25 26//26 27//27
f 28//28 29//29 30//30
f 31//31 32//32 33//33
f 34//34 35//35 36//36
f 37//37 38//38 39//39
f 40//40 41//41 42//42
f 43//43 44//44 45//45
f 46//46 47//47 48//48
f 49//49 50//50 51//51
f 51//51 52//52 49//49
f 53//53 54//54 55//55
f 55//55 56//56 53//53
f 57//57 58//58 59//59
f 60//60 61//61 62//62
f 63//63 64//64 65//65
f 65//65 66//66 63//63
f 67//67 68//68 69//69
f 70//70 71//71 72//72
f 73//73 74//74 75//75
f 75//75 76//76 73//73
f 77//77 78//78 79//79
f 79//79 80//80 77//77
f 81//81 82//82 83//83
f 83//83 84//84 81//81
f 85//85 86//86 87//87
f 87//87 88//88 85//85
f 89//89 90//90 91//91
f 91//91 92//92 89//89
f 93//93 94//94 95//95
f 96//96 97//97 98//98
f 99//99 100//100 101//101
f 101//101 102//102 99//99

