# https://github.com/mikedh/trimesh
mtllib 128b5f2d072869004b7a218ab674f93f73a66670_part_5.mtl
usemtl material_0
v -0.24531353 -0.56106696 0.14238818
v -0.24531353 0.50322773 0.14238821
v -0.47821150 0.50322773 0.14238821
v -0.47821141 -0.56106703 0.14238818
v -0.24531361 0.50322785 0.13202032
v -0.24531353 -0.56106703 0.13202027
v -0.47821141 -0.56106703 0.13202027
v -0.47821150 0.50322773 0.13202032
v -0.24531353 -0.56320086 0.13424937
v -0.24531353 -0.56320086 0.14015908
v -0.47821141 -0.56320086 0.14015908
v -0.47821141 -0.56320086 0.13424937
v -0.24531353 0.50536172 0.14015913
v -0.24531356 0.50536172 0.13424942
v -0.47821150 0.50536172 0.13424942
v -0.47821150 0.50536172 0.14015913
v -0.24308438 0.50322798 0.14015913
v -0.24308438 -0.56106696 0.14015908
v -0.24308438 -0.56106703 0.13424937
v -0.24308446 0.50322798 0.13424942
v -0.48044051 -0.56106703 0.14015908
v -0.48044060 0.50322773 0.14015913
v -0.48044060 0.50322785 0.13424942
v -0.48044048 -0.56106696 0.13424937
v -0.24531353 -0.56106696 0.14238818
v -0.24531353 -0.56320086 0.14015908
v -0.24308438 -0.56106696 0.14015908
v -0.24308438 0.50322798 0.14015913
v -0.24531353 0.50536172 0.14015913
v -0.24531353 0.50322773 0.14238821
v -0.24308446 0.50322798 0.13424942
v -0.24531361 0.50322785 0.13202032
v -0.24531356 0.50536172 0.13424942
v -0.24531353 -0.56320086 0.13424937
v -0.24531353 -0.56106703 0.13202027
v -0.24308438 -0.56106703 0.13424937
v -0.47821141 -0.56106703 0.14238818
v -0.48044051 -0.56106703 0.14015908
v -0.47821141 -0.56320086 0.14015908
v -0.47821150 0.50322773 0.13202032
v -0.48044060 0.50322785 0.13424942
v -0.47821150 0.50536172 0.13424942
v -0.47821150 0.50536172 0.14015913
v -0.48044060 0.50322773 0.14015913
v -0.47821150 0.50322773 0.14238821
v -0.47821141 -0.56320086 0.13424937
v -0.48044048 -0.56106696 0.13424937
v -0.47821141 -0.56106703 0.13202027
v -0.47821150 0.50536172 0.14015913
v -0.47821150 0.50322773 0.14238821
v -0.24531353 0.50322773 0.14238821
v -0.24531353 0.50536172 0.14015913
v -0.47821141 -0.56320086 0.13424937
v -0.47821141 -0.56106703 0.13202027
v -0.24531353 -0.56106703 0.13202027
v -0.24531353 -0.56320086 0.13424937
v -0.24308438 0.50322798 0.14015913
v -0.24531353 0.50322773 0.14238821
v -0.24531353 -0.56106696 0.14238818
v -0.24531353 -0.56106696 0.14238818
v -0.24308438 -0.56106696 0.14015908
v -0.24308438 0.50322798 0.14015913
v -0.24308438 -0.56106703 0.13424937
v -0.24531353 -0.56106703 0.13202027
v -0.24531361 0.50322785 0.13202032
v -0.24308446 0.50322798 0.13424942
v -0.24308438 -0.56106696 0.14015908
v -0.24531353 -0.56320086 0.14015908
v -0.24531353 -0.56320086 0.13424937
v -0.24531353 -0.56320086 0.13424937
v -0.24308438 -0.56106703 0.13424937
v -0.24308438 -0.56106696 0.14015908
v -0.24308446 0.50322798 0.13424942
v -0.24531356 0.50536172 0.13424942
v -0.24531353 0.50536172 0.14015913
v -0.24531353 0.50536172 0.14015913
v -0.24308438 0.50322798 0.14015913
v -0.24308446 0.50322798 0.13424942
v -0.24531353 -0.56320086 0.14015908
v -0.24531353 -0.56106696 0.14238818
v -0.47821141 -0.56106703 0.14238818
v -0.47821141 -0.56320086 0.14015908
v -0.24531356 0.50536172 0.13424942
v -0.24531361 0.50322785 0.13202032
v -0.47821150 0.50322773 0.13202032
v -0.47821150 0.50536172 0.13424942
v -0.48044051 -0.56106703 0.14015908
v -0.47821141 -0.56106703 0.14238818
v -0.47821150 0.50322773 0.14238821
v -0.48044060 0.50322773 0.14015913
v -0.48044060 0.50322785 0.13424942
v -0.47821150 0.50322773 0.13202032
v -0.47821141 -0.56106703 0.13202027
v -0.48044048 -0.56106696 0.13424937
v -0.48044048 -0.56106696 0.13424937
v -0.47821141 -0.56320086 0.13424937
v -0.47821141 -0.56320086 0.14015908
v -0.48044051 -0.56106703 0.14015908
v -0.48044060 0.50322773 0.14015913
v -0.47821150 0.50536172 0.14015913
v -0.47821150 0.50536172 0.13424942
v -0.48044060 0.50322785 0.13424942
vn 0.00000000 -0.00000004 1.00000000
vn 0.00000000 -0.00000004 1.00000000
vn 0.00000000 -0.00000004 1.00000000
vn 0.00000000 -0.00000004 1.00000000
vn 0.00000000 0.00000004 -1.00000000
vn 0.00000000 0.00000004 -1.00000000
vn 0.00000000 0.00000004 -1.00000000
vn 0.00000000 0.00000004 -1.00000000
vn 0.00000000 -1.00000000 0.00000000
vn 0.00000000 -1.00000000 0.00000000
vn 0.00000000 -1.00000000 0.00000000
vn 0.00000000 -1.00000000 0.00000000
vn 0.00000000 1.00000000 0.00000000
vn 0.00000000 1.00000000 0.00000000
vn 0.00000000 1.00000000 0.00000000
vn 0.00000000 1.00000000 0.00000000
vn 1.00000000 0.00000000 0.00000000
vn 1.00000000 0.00000000 0.00000000
vn 1.00000000 0.00000000 0.00000000
vn 1.00000000 0.00000007 -0.00001338
vn -1.00000000 -0.00000007 0.00000000
vn -1.00000000 -0.00000007 0.00000000
vn -1.00000000 -0.00000007 0.00000000
vn -1.00000000 -0.00000011 -0.00000669
vn 0.56876154 -0.59414573 0.56877162
vn 0.56876154 -0.59414573 0.56877162
vn 0.56876154 -0.59414573 0.56877162
vn 0.56873960 0.59414489 0.56879444
vn 0.56873960 0.59414489 0.56879444
vn 0.56873960 0.59414489 0.56879444
vn 0.56875081 0.59414603 -0.56878204
vn 0.56875081 0.59414603 -0.56878204
vn 0.56875081 0.59414603 -0.56878204
vn 0.56875408 -0.59415997 -0.56876421
vn 0.56875408 -0.59415997 -0.56876421
vn 0.56875408 -0.59415997 -0.56876421
vn -0.56876093 -0.59415656 0.56876093
vn -0.56876093 -0.59415656 0.56876093
vn -0.56876093 -0.59415656 0.56876093
vn -0.56876152 0.59413522 -0.56878262
vn -0.56876152 0.59413522 -0.56878262
vn -0.56876152 0.59413522 -0.56878262
vn -0.56877499 0.59412723 0.56877750
vn -0.56877499 0.59412723 0.56877750
vn -0.56877499 0.59412723 0.56877750
vn -0.56878202 -0.59414601 -0.56875085
vn -0.56878202 -0.59414601 -0.56875085
vn -0.56878202 -0.59414601 -0.56875085
vn 0.00000000 0.72234911 0.69152857
vn 0.00000000 0.72234911 0.69152857
vn 0.00000000 0.72234911 0.69152857
vn 0.00000000 0.72234911 0.69152857
vn 0.00000000 -0.72237628 -0.69150018
vn 0.00000000 -0.72237628 -0.69150018
vn 0.00000000 -0.72237628 -0.69150018
vn 0.00000000 -0.72237628 -0.69150018
vn 0.70709894 -0.00000003 0.70711462
vn 0.70709894 -0.00000003 0.70711462
vn 0.70709894 -0.00000003 0.70711462
vn 0.70710049 -0.00000003 0.70711307
vn 0.70710049 -0.00000003 0.70711307
vn 0.70710049 -0.00000003 0.70711307
vn 0.70710049 0.00000008 -0.70711307
vn 0.70710049 0.00000008 -0.70711307
vn 0.70710049 0.00000008 -0.70711307
vn 0.70710049 0.00000008 -0.70711307
vn 0.69150716 -0.72236961 0.00000000
vn 0.69150716 -0.72236961 0.00000000
vn 0.69150716 -0.72236961 0.00000000
vn 0.69149382 -0.72238238 0.00000967
vn 0.69149382 -0.72238238 0.00000967
vn 0.69149382 -0.72238238 0.00000967
vn 0.69150021 0.72237626 -0.00000463
vn 0.69150021 0.72237626 -0.00000463
vn 0.69150021 0.72237626 -0.00000463
vn 0.69149382 0.72238238 -0.00000926
vn 0.69149382 0.72238238 -0.00000926
vn 0.69149382 0.72238238 -0.00000926
vn 0.00000025 -0.72236349 0.69151355
vn 0.00000025 -0.72236349 0.69151355
vn 0.00000025 -0.72236349 0.69151355
vn 0.00000000 -0.72237628 0.69150018
vn -0.00000025 0.72236349 -0.69151355
vn -0.00000025 0.72236349 -0.69151355
vn -0.00000025 0.72236349 -0.69151355
vn 0.00000000 0.72235066 -0.69152695
vn -0.70710678 -0.00000008 0.70710678
vn -0.70710678 -0.00000008 0.70710678
vn -0.70710678 -0.00000008 0.70710678
vn -0.70710523 -0.00000009 0.70710833
vn -0.70710678 -0.00000003 -0.70710678
vn -0.70710678 -0.00000003 -0.70710678
vn -0.70710678 -0.00000003 -0.70710678
vn -0.70711301 -0.00000005 -0.70710055
vn -0.69151998 -0.72235734 0.00000000
vn -0.69151998 -0.72235734 0.00000000
vn -0.69151998 -0.72235734 0.00000000
vn -0.69150024 -0.72237623 -0.00001430
vn -0.69152695 0.72235066 0.00000000
vn -0.69152695 0.72235066 0.00000000
vn -0.69152695 0.72235066 0.00000000
vn -0.69151358 0.72236346 0.00000967
f 1//1 2//2 3//3
f 3//3 4//4 1//1
f 5//5 6//6 7//7
f 7//7 8//8 5//5
f 9//9 10//10 11//11
f 11//11 12//12 9//9
f 13//13 14//14 15//15
f 15//15 16//16 13//13
f 17//17 18//18 19//19
f 19//19 20//20 17//17
f 21//21 22//22 23//23
f 23//23 24//24 21//21
f 25//25 26//26 27//27
f 28//28 29//29 30//30
f 31//31 32//32 33//33
f 34//34 35//35 36//36
f 37//37 38//38 39//39
f 40//40 41//41 42//42
f 43//43 44//44 45//45
f 46//46 47//47 48//48
f 49//49 50//50 51//51
f 51//51 52//52 49//49
f 53//53 54//54 55//55
f 55//55 56//56 53//53
f 57//57 58//58 59//59
f 60//60 61//61 62//62
f 63//63 64//64 65//65
f 65//65 66//66 63//63
f 67//67 68//68 69//69
f 70//70 71//71 72//72
f 73//73 74//74 75//75
f 76//76 77//77 78//78
f 79//79 80//80 81//81
f 81//81 82//82 79//79
f 83//83 84//84 85//85
f 85//85 86//86 83//83
f 87//87 88//88 89//89
f 89//89 90//90 87//87
f 91//91 92//92 93//93
f 93//93 94//94 91//91
f 95//95 96//96 97//97
f 97//97 98//98 95//95
f 99//99 100//100 101//101
f 101//101 102//102 99//99

