# https://github.com/mikedh/trimesh
mtllib 128b5f2d072869004b7a218ab674f93f73a66670_part_6.mtl
usemtl material_0
v -0.72225491 -0.56106703 0.13424937
v -0.72225491 -0.56106703 0.14015908
v -0.72225491 0.50322785 0.14015913
v -0.72225491 0.50322773 0.13424942
v -0.48712784 -0.56106696 0.14238818
v -0.48712790 0.50322798 0.14238821
v -0.72002587 0.50322785 0.14238821
v -0.72002587 -0.56106703 0.14238818
v -0.48712790 0.50322798 0.13202032
v -0.48712784 -0.56106703 0.13202027
v -0.72002587 -0.56106703 0.13202027
v -0.72002587 0.50322773 0.13202032
v -0.48712784 -0.56320086 0.13424937
v -0.48712784 -0.56320086 0.14015908
v -0.72002587 -0.56320086 0.14015908
v -0.72002587 -0.56320086 0.13424937
v -0.48712790 0.50536172 0.14015913
v -0.48712790 0.50536172 0.13424942
v -0.72002587 0.50536172 0.13424942
v -0.72002587 0.50536172 0.14015913
v -0.48489877 0.50322798 0.14015913
v -0.48489877 -0.56106703 0.14015908
v -0.48489877 -0.56106703 0.13424937
v -0.48489877 0.50322798 0.13424942
v -0.72225491 -0.56106703 0.14015908
v -0.72002587 -0.56320086 0.14015908
v -0.72002587 -0.56106703 0.14238818
v -0.72002587 0.50322785 0.14238821
v -0.72002587 0.50536172 0.14015913
v -0.72225491 0.50322785 0.14015913
v -0.72225491 -0.56106703 0.13424937
v -0.72002587 -0.56106703 0.13202027
v -0.72002587 -0.56320086 0.13424937
v -0.72002587 0.50536172 0.13424942
v -0.72002587 0.50322773 0.13202032
v -0.72225491 0.50322773 0.13424942
v -0.48712784 -0.56320086 0.14015908
v -0.48489877 -0.56106703 0.14015908
v -0.48712784 -0.56106696 0.14238818
v -0.48712790 0.50536172 0.13424942
v -0.48489877 0.50322798 0.13424942
v -0.48712790 0.50322798 0.13202032
v -0.48712790 0.50322798 0.14238821
v -0.48489877 0.50322798 0.14015913
v -0.48712790 0.50536172 0.14015913
v -0.48712784 -0.56106703 0.13202027
v -0.48489877 -0.56106703 0.13424937
v -0.48712784 -0.56320086 0.13424937
v -0.48712784 -0.56320086 0.14015908
v -0.48712784 -0.56106696 0.14238818
v -0.72002587 -0.56106703 0.14238818
v -0.72002587 -0.56320086 0.14015908
v -0.72225491 -0.56106703 0.14015908
v -0.72002587 -0.56106703 0.14238818
v -0.72002587 0.50322785 0.14238821
v -0.72225491 0.50322785 0.14015913
v -0.72225491 0.50322773 0.13424942
v -0.72002587 0.50322773 0.13202032
v -0.72002587 -0.56106703 0.13202027
v -0.72225491 -0.56106703 0.13424937
v -0.48712790 0.50536172 0.13424942
v -0.48712790 0.50322798 0.13202032
v -0.72002587 0.50322773 0.13202032
v -0.72002587 0.50536172 0.13424942
v -0.72225491 -0.56106703 0.13424937
v -0.72002587 -0.56320086 0.13424937
v -0.72002587 -0.56320086 0.14015908
v -0.72225491 -0.56106703 0.14015908
v -0.72225491 0.50322785 0.14015913
v -0.72002587 0.50536172 0.14015913
v -0.72002587 0.50536172 0.13424942
v -0.72225491 0.50322773 0.13424942
v -0.72002587 0.50536172 0.14015913
v -0.72002587 0.50322785 0.14238821
v -0.48712790 0.50322798 0.14238821
v -0.48712790 0.50536172 0.14015913
v -0.72002587 -0.56320086 0.13424937
v -0.72002587 -0.56106703 0.13202027
v -0.48712784 -0.56106703 0.13202027
v -0.48712784 -0.56320086 0.13424937
v -0.48489877 0.50322798 0.14015913
v -0.48712790 0.50322798 0.14238821
v -0.48712784 -0.56106696 0.14238818
v -0.48712784 -0.56106696 0.14238818
v -0.48489877 -0.56106703 0.14015908
v -0.48489877 0.50322798 0.14015913
v -0.48489877 -0.56106703 0.13424937
v -0.48712784 -0.56106703 0.13202027
v -0.48712790 0.50322798 0.13202032
v -0.48489877 0.50322798 0.13424942
v -0.48489877 -0.56106703 0.14015908
v -0.48712784 -0.56320086 0.14015908
v -0.48712784 -0.56320086 0.13424937
v -0.48489877 -0.56106703 0.13424937
v -0.48489877 0.50322798 0.13424942
v -0.48712790 0.50536172 0.13424942
v -0.48712790 0.50536172 0.14015913
v -0.48489877 0.50322798 0.14015913
vn -1.00000000 0.00000000 0.00000000
vn -1.00000000 0.00000000 0.00000000
vn -1.00000000 0.00000000 0.00000000
vn -1.00000000 0.00000000 0.00000000
vn 0.00000000 -0.00000004 1.00000000
vn 0.00000000 -0.00000004 1.00000000
vn 0.00000000 -0.00000004 1.00000000
vn 0.00000000 -0.00000004 1.00000000
vn 0.00000000 0.00000004 -1.00000000
vn 0.00000000 0.00000004 -1.00000000
vn 0.00000000 0.00000004 -1.00000000
vn 0.00000000 0.00000004 -1.00000000
vn 0.00000000 -1.00000000 0.00000000
vn 0.00000000 -1.00000000 0.00000000
vn 0.00000000 -1.00000000 0.00000000
vn 0.00000000 -1.00000000 0.00000000
vn -0.00000034 1.00000000 0.00000000
vn -0.00000034 1.00000000 0.00000000
vn -0.00000034 1.00000000 0.00000000
vn -0.00000034 1.00000000 0.00000000
vn 1.00000000 0.00000000 0.00000000
vn 1.00000000 0.00000000 0.00000000
vn 1.00000000 0.00000000 0.00000000
vn 1.00000000 0.00000000 0.00000000
vn -0.56876779 -0.59415311 0.56875766
vn -0.56876779 -0.59415311 0.56875766
vn -0.56876779 -0.59415311 0.56875766
vn -0.56876695 0.59415233 0.56875932
vn -0.56876695 0.59415233 0.56875932
vn -0.56876695 0.59415233 0.56875932
vn -0.56876779 -0.59415311 -0.56875766
vn -0.56876779 -0.59415311 -0.56875766
vn -0.56876779 -0.59415311 -0.56875766
vn -0.56877518 0.59413892 -0.56876510
vn -0.56877518 0.59413892 -0.56876510
vn -0.56877518 0.59413892 -0.56876510
vn 0.56876095 -0.59414597 0.56877197
vn 0.56876095 -0.59414597 0.56877197
vn 0.56876095 -0.59414597 0.56877197
vn 0.56875408 0.59415997 -0.56876421
vn 0.56875408 0.59415997 -0.56876421
vn 0.56875408 0.59415997 -0.56876421
vn 0.56873905 0.59416621 0.56877272
vn 0.56873905 0.59416621 0.56877272
vn 0.56873905 0.59416621 0.56877272
vn 0.56876779 -0.59415311 -0.56875766
vn 0.56876779 -0.59415311 -0.56875766
vn 0.56876779 -0.59415311 -0.56875766
vn 0.00000025 -0.72236346 0.69151358
vn 0.00000025 -0.72236346 0.69151358
vn 0.00000025 -0.72236346 0.69151358
vn 0.00000000 -0.72237623 0.69150024
vn -0.70711307 -0.00000003 0.70710049
vn -0.70711307 -0.00000003 0.70710049
vn -0.70711307 -0.00000003 0.70710049
vn -0.70711146 -0.00000003 0.70710210
vn -0.70711301 0.00000003 -0.70710055
vn -0.70711301 0.00000003 -0.70710055
vn -0.70711301 0.00000003 -0.70710055
vn -0.70711301 0.00000003 -0.70710055
vn -0.00000049 0.72237617 -0.69150031
vn -0.00000049 0.72237617 -0.69150031
vn -0.00000049 0.72237617 -0.69150031
vn -0.00000025 0.72236346 -0.69151358
vn -0.69150661 -0.72237013 0.00000000
vn -0.69150661 -0.72237013 0.00000000
vn -0.69150661 -0.72237013 0.00000000
vn -0.69150661 -0.72237013 0.00000000
vn -0.69150667 0.72237007 0.00000000
vn -0.69150667 0.72237007 0.00000000
vn -0.69150667 0.72237007 0.00000000
vn -0.69152001 0.72235731 -0.00000967
vn -0.00000025 0.72237468 0.69150186
vn -0.00000025 0.72237468 0.69150186
vn -0.00000025 0.72237468 0.69150186
vn -0.00000025 0.72237468 0.69150186
vn 0.00000000 -0.72237623 -0.69150024
vn 0.00000000 -0.72237623 -0.69150024
vn 0.00000000 -0.72237623 -0.69150024
vn 0.00000000 -0.72237623 -0.69150024
vn 0.70709894 0.00000003 0.70711462
vn 0.70709894 0.00000003 0.70711462
vn 0.70709894 0.00000003 0.70711462
vn 0.70711307 -0.00000003 0.70710049
vn 0.70711307 -0.00000003 0.70710049
vn 0.70711307 -0.00000003 0.70710049
vn 0.70711307 0.00000008 -0.70710049
vn 0.70711307 0.00000008 -0.70710049
vn 0.70711307 0.00000008 -0.70710049
vn 0.70710049 0.00000003 -0.70711307
vn 0.69150661 -0.72237013 0.00000000
vn 0.69150661 -0.72237013 0.00000000
vn 0.69150661 -0.72237013 0.00000000
vn 0.69150661 -0.72237013 0.00000000
vn 0.69149382 0.72238238 0.00000000
vn 0.69149382 0.72238238 0.00000000
vn 0.69149382 0.72238238 0.00000000
vn 0.69148042 0.72239520 -0.00000967
f 1//1 2//2 3//3
f 3//3 4//4 1//1
f 5//5 6//6 7//7
f 7//7 8//8 5//5
f 9//9 10//10 11//11
f 11//11 12//12 9//9
f 13//13 14//14 15//15
f 15//15 16//16 13//13
f 17//17 18//18 19//19
f 19//19 20//20 17//17
f 21//21 22//22 23//23
f 23//23 24//24 21//21
f 25//25 26//26 27//27
f 28//28 29//29 30//30
f 31//31 32//32 33//33
f 34//34 35//35 36//36
f 37//37 38//38 39//39
f 40//40 41//41 42//42
f 43//43 44//44 45//45
f 46//46 47//47 48//48
f 49//49 50//50 51//51
f 51//51 52//52 49//49
f 53//53 54//54 55//55
f 55//55 56//56 53//53
f 57//57 58//58 59//59
f 59//59 60//60 57//57
f 61//61 62//62 63//63
f 63//63 64//64 61//61
f 65//65 66//66 67//67
f 67//67 68//68 65//65
f 69//69 70//70 71//71
f 71//71 72//72 69//69
f 73//73 74//74 75//75
f 75//75 76//76 73//73
f 77//77 78//78 79//79
f 79//79 80//80 77//77
f 81//81 82//82 83//83
f 84//84 85//85 86//86
f 87//87 88//88 89//89
f 89//89 90//90 87//87
f 91//91 92//92 93//93
f 93//93 94//94 91//91
f 95//95 96//96 97//97
f 97//97 98//98 95//95

