# https://github.com/mikedh/trimesh
mtllib 128b5f2d072869004b7a218ab674f93f73a66670_part_1.mtl
usemtl material_0
v 0.72225491 0.50322773 0.13424942
v 0.72225491 0.50322785 0.14015913
v 0.72225472 -0.56106703 0.14015908
v 0.72225491 -0.56106703 0.13424937
v 0.48712784 0.50322798 0.14238821
v 0.48712790 -0.56106696 0.14238818
v 0.72002587 -0.56106696 0.14238818
v 0.72002587 0.50322785 0.14238821
v 0.48712784 -0.56106696 0.13202027
v 0.48712790 0.50322798 0.13202032
v 0.72002587 0.50322785 0.13202032
v 0.72002587 -0.56106696 0.13202027
v 0.48712784 -0.56320086 0.14015908
v 0.48712784 -0.56320086 0.13424937
v 0.72002587 -0.56320086 0.13424937
v 0.72002587 -0.56320086 0.14015908
v 0.48712784 0.50536172 0.13424942
v 0.48712784 0.50536172 0.14015913
v 0.72002587 0.50536172 0.14015913
v 0.72002587 0.50536172 0.13424942
v 0.48489868 -0.56106703 0.14015908
v 0.48489868 0.50322798 0.14015913
v 0.48489868 0.50322785 0.13424942
v 0.48489868 -0.56106703 0.13424937
v 0.72002587 -0.56106696 0.14238818
v 0.72002587 -0.56320086 0.14015908
v 0.72225472 -0.56106703 0.14015908
v 0.72225491 0.50322785 0.14015913
v 0.72002587 0.50536172 0.14015913
v 0.72002587 0.50322785 0.14238821
v 0.72002587 -0.56320086 0.13424937
v 0.72002587 -0.56106696 0.13202027
v 0.72225491 -0.56106703 0.13424937
v 0.72225491 0.50322773 0.13424942
v 0.72002587 0.50322785 0.13202032
v 0.72002587 0.50536172 0.13424942
v 0.48712784 0.50536172 0.14015913
v 0.48489868 0.50322798 0.14015913
v 0.48712784 0.50322798 0.14238821
v 0.48712784 -0.56320086 0.13424937
v 0.48489868 -0.56106703 0.13424937
v 0.48712784 -0.56106696 0.13202027
v 0.48712790 -0.56106696 0.14238818
v 0.48489868 -0.56106703 0.14015908
v 0.48712784 -0.56320086 0.14015908
v 0.48712790 0.50322798 0.13202032
v 0.48489868 0.50322785 0.13424942
v 0.48712784 0.50536172 0.13424942
v 0.72225491 0.50322785 0.14015913
v 0.72002587 0.50322785 0.14238821
v 0.72002587 -0.56106696 0.14238818
v 0.72002587 -0.56106696 0.14238818
v 0.72225472 -0.56106703 0.14015908
v 0.72225491 0.50322785 0.14015913
v 0.48712784 0.50536172 0.14015913
v 0.48712784 0.50322798 0.14238821
v 0.72002587 0.50322785 0.14238821
v 0.72002587 0.50536172 0.14015913
v 0.72225491 -0.56106703 0.13424937
v 0.72002587 -0.56106696 0.13202027
v 0.72002587 0.50322785 0.13202032
v 0.72225491 0.50322773 0.13424942
v 0.48712784 -0.56320086 0.13424937
v 0.48712784 -0.56106696 0.13202027
v 0.72002587 -0.56106696 0.13202027
v 0.72002587 -0.56320086 0.13424937
v 0.72225472 -0.56106703 0.14015908
v 0.72002587 -0.56320086 0.14015908
v 0.72002587 -0.56320086 0.13424937
v 0.72225491 -0.56106703 0.13424937
v 0.72002587 0.50536172 0.14015913
v 0.72225491 0.50322785 0.14015913
v 0.72225491 0.50322773 0.13424942
v 0.72002587 0.50536172 0.13424942
v 0.72002587 -0.56320086 0.14015908
v 0.72002587 -0.56106696 0.14238818
v 0.48712790 -0.56106696 0.14238818
v 0.48712784 -0.56320086 0.14015908
v 0.72002587 0.50536172 0.13424942
v 0.72002587 0.50322785 0.13202032
v 0.48712790 0.50322798 0.13202032
v 0.48712784 0.50536172 0.13424942
v 0.48489868 -0.56106703 0.14015908
v 0.48712790 -0.56106696 0.14238818
v 0.48712784 0.50322798 0.14238821
v 0.48489868 0.50322798 0.14015913
v 0.48489868 0.50322785 0.13424942
v 0.48712790 0.50322798 0.13202032
v 0.48712784 -0.56106696 0.13202027
v 0.48712784 -0.56106696 0.13202027
v 0.48489868 -0.56106703 0.13424937
v 0.48489868 0.50322785 0.13424942
v 0.48489868 -0.56106703 0.13424937
v 0.48712784 -0.56320086 0.13424937
v 0.48712784 -0.56320086 0.14015908
v 0.48489868 -0.56106703 0.14015908
v 0.48489868 0.50322798 0.14015913
v 0.48712784 0.50536172 0.14015913
v 0.48712784 0.50536172 0.13424942
v 0.48712784 0.50536172 0.13424942
v 0.48489868 0.50322785 0.13424942
v 0.48489868 0.50322798 0.14015913
vn 1.00000000 -0.00000015 0.00000009
vn 1.00000000 -0.00000015 0.00000000
vn 1.00000000 0.00000000 0.00002668
vn 1.00000000 0.00000000 0.00002677
vn 0.00000000 -0.00000004 1.00000000
vn 0.00000000 -0.00000004 1.00000000
vn 0.00000000 -0.00000004 1.00000000
vn 0.00000000 -0.00000004 1.00000000
vn 0.00000000 0.00000004 -1.00000000
vn 0.00000000 0.00000004 -1.00000000
vn 0.00000000 0.00000004 -1.00000000
vn 0.00000000 0.00000004 -1.00000000
vn 0.00000000 -1.00000000 0.00000000
vn 0.00000000 -1.00000000 0.00000000
vn 0.00000000 -1.00000000 0.00000000
vn 0.00000000 -1.00000000 0.00000000
vn 0.00000000 1.00000000 0.00000000
vn 0.00000000 1.00000000 0.00000000
vn 0.00000000 1.00000000 0.00000000
vn 0.00000000 1.00000000 0.00000000
vn -1.00000000 0.00000000 0.00000000
vn -1.00000000 0.00000000 0.00000000
vn -1.00000000 0.00000000 0.00000000
vn -1.00000000 0.00000000 0.00000000
vn 0.56878825 -0.59413238 0.56875886
vn 0.56878825 -0.59413238 0.56875886
vn 0.56878825 -0.59413238 0.56875886
vn 0.56877440 0.59413802 0.56876683
vn 0.56877440 0.59413802 0.56876683
vn 0.56877440 0.59413802 0.56876683
vn 0.56876095 -0.59414597 -0.56877197
vn 0.56876095 -0.59414597 -0.56877197
vn 0.56876095 -0.59414597 -0.56877197
vn 0.56878947 0.59413175 -0.56875830
vn 0.56878947 0.59413175 -0.56875830
vn 0.56878947 0.59413175 -0.56875830
vn -0.56875330 0.59415912 0.56876588
vn -0.56875330 0.59415912 0.56876588
vn -0.56875330 0.59415912 0.56876588
vn -0.56874727 -0.59415286 -0.56877845
vn -0.56874727 -0.59415286 -0.56877845
vn -0.56874727 -0.59415286 -0.56877845
vn -0.56874074 -0.59414603 0.56879212
vn -0.56874074 -0.59414603 0.56879212
vn -0.56874074 -0.59414603 0.56879212
vn -0.56876184 0.59414603 -0.56877102
vn -0.56876184 0.59414603 -0.56877102
vn -0.56876184 0.59414603 -0.56877102
vn 0.70711149 -0.00000003 0.70710207
vn 0.70711149 -0.00000003 0.70710207
vn 0.70711149 -0.00000003 0.70710207
vn 0.70713816 -0.00000014 0.70707540
vn 0.70713816 -0.00000014 0.70707540
vn 0.70713816 -0.00000014 0.70707540
vn 0.00000025 0.72237471 0.69150183
vn 0.00000025 0.72237471 0.69150183
vn 0.00000025 0.72237471 0.69150183
vn 0.00000000 0.72236191 0.69151520
vn 0.70711301 0.00000003 -0.70710055
vn 0.70711301 0.00000003 -0.70710055
vn 0.70711301 0.00000003 -0.70710055
vn 0.70711301 0.00000003 -0.70710055
vn 0.00000000 -0.72236346 -0.69151358
vn 0.00000000 -0.72236346 -0.69151358
vn 0.00000000 -0.72236346 -0.69151358
vn 0.00000000 -0.72236346 -0.69151358
vn 0.69153225 -0.72234559 0.00000000
vn 0.69153225 -0.72234559 0.00000000
vn 0.69153225 -0.72234559 0.00000000
vn 0.69150661 -0.72237013 0.00001851
vn 0.69152001 0.72235731 -0.00000967
vn 0.69152001 0.72235731 -0.00000967
vn 0.69152001 0.72235731 -0.00000967
vn 0.69153338 0.72234451 0.00000000
vn 0.00000000 -0.72236346 0.69151358
vn 0.00000000 -0.72236346 0.69151358
vn 0.00000000 -0.72236346 0.69151358
vn 0.00000000 -0.72236346 0.69151358
vn 0.00000025 0.72236346 -0.69151358
vn 0.00000025 0.72236346 -0.69151358
vn 0.00000025 0.72236346 -0.69151358
vn 0.00000000 0.72237623 -0.69150024
vn -0.70708801 -0.00000008 0.70712556
vn -0.70708801 -0.00000008 0.70712556
vn -0.70708801 -0.00000008 0.70712556
vn -0.70709894 -0.00000003 0.70711462
vn -0.70708801 0.00000008 -0.70712556
vn -0.70708801 0.00000008 -0.70712556
vn -0.70708801 0.00000008 -0.70712556
vn -0.70710049 0.00000003 -0.70711307
vn -0.70710049 0.00000003 -0.70711307
vn -0.70710049 0.00000003 -0.70711307
vn -0.69149382 -0.72238238 0.00000000
vn -0.69149382 -0.72238238 0.00000000
vn -0.69149382 -0.72238238 0.00000000
vn -0.69149382 -0.72238238 0.00000000
vn -0.69149382 0.72238238 0.00000000
vn -0.69149382 0.72238238 0.00000000
vn -0.69149382 0.72238238 0.00000000
vn -0.69150716 0.72236961 -0.00000967
vn -0.69150716 0.72236961 -0.00000967
vn -0.69150716 0.72236961 -0.00000967
f 1//1 2//2 3//3
f 3//3 4//4 1//1
f 5//5 6//6 7//7
f 7//7 8//8 5//5
f 9//9 10//10 11//11
f 11//11 12//12 9//9
f 13//13 14//14 15//15
f 15//15 16//16 13//13
f 17//17 18//18 19//19
f 19//19 20//20 17//17
f 21//21 22//22 23//23
f 23//23 24//24 21//21
f 25//25 26//26 27//27
f 28//28 29//29 30//30
f 31//31 32//32 33//33
f 34//34 35//35 36//36
f 37//37 38//38 39//39
f 40//40 41//41 42//42
f 43//43 44//44 45//45
f 46//46 47//47 48//48
f 49//49 50//50 51//51
f 52//52 53//53 54//54
f 55//55 56//56 57//57
f 57//57 58//58 55//55
f 59//59 60//60 61//61
f 61//61 62//62 59//59
f 63//63 64//64 65//65
f 65//65 66//66 63//63
f 67//67 68//68 69//69
f 69//69 70//70 67//67
f 71//71 72//72 73//73
f 73//73 74//74 71//71
f 75//75 76//76 77//77
f 77//77 78//78 75//75
f 79//79 80//80 81//81
f 81//81 82//82 79//79
f 83//83 84//84 85//85
f 85//85 86//86 83//83
f 87//87 88//88 89//89
f 90//90 91//91 92//92
f 93//93 94//94 95//95
f 95//95 96//96 93//93
f 97//97 98//98 99//99
f 100//100 101//101 102//102

