# https://github.com/mikedh/trimesh
mtllib 16b93d86d1a466f5982e60c8d322ddd8f312056e_part_5.mtl
usemtl texture_65439117-f4db-4585-bf22-6fd2464f4cf4
v -0.46765317 -0.60028811 0.21488701
v 0.15063756 -0.60028805 0.21488706
v 0.15063741 -0.44073372 0.21488705
v -0.46765328 -0.44073378 0.21488698
v -0.46765317 -0.60028811 0.19592545
v -0.46765328 -0.44073378 0.19592542
v 0.15063744 -0.44073372 0.19592549
v 0.15063759 -0.60028805 0.19592550
v -0.46765317 -0.60028811 0.21488701
v -0.46765328 -0.44073378 0.21488698
v -0.46765328 -0.44073378 0.19592542
v -0.46765317 -0.60028811 0.19592545
v -0.46765328 -0.44073378 0.21488698
v 0.15063741 -0.44073372 0.21488705
v 0.15063744 -0.44073372 0.19592549
v -0.46765328 -0.44073378 0.19592542
v 0.15063741 -0.44073372 0.21488705
v 0.15063756 -0.60028805 0.21488706
v 0.15063759 -0.60028805 0.19592550
v 0.15063744 -0.44073372 0.19592549
v 0.15063756 -0.60028805 0.21488706
v -0.46765317 -0.60028811 0.21488701
v -0.46765317 -0.60028811 0.19592545
v 0.15063759 -0.60028805 0.19592550
vn -0.00000004 0.00000002 1.00000000
vn -0.00000004 0.00000002 1.00000000
vn -0.00000004 0.00000002 1.00000000
vn -0.00000005 0.00000002 1.00000000
vn 0.00000005 -0.00000002 -1.00000000
vn 0.00000005 -0.00000002 -1.00000000
vn 0.00000005 -0.00000002 -1.00000000
vn 0.00000004 -0.00000002 -1.00000000
vn -1.00000000 -0.00000022 -0.00000016
vn -1.00000000 -0.00000022 -0.00000016
vn -1.00000000 -0.00000022 -0.00000016
vn -1.00000000 -0.00000022 -0.00000016
vn 0.00000072 1.00000000 0.00000000
vn 0.00000072 1.00000000 0.00000000
vn 0.00000072 1.00000000 0.00000000
vn 0.00000072 1.00000000 0.00000000
vn 1.00000000 0.00000022 0.00000083
vn 1.00000000 0.00000022 0.00000083
vn 1.00000000 0.00000022 0.00000083
vn 1.00000000 0.00000022 0.00000083
vn -0.00000101 -1.00000000 0.00000000
vn -0.00000101 -1.00000000 0.00000000
vn -0.00000101 -1.00000000 0.00000000
vn -0.00000101 -1.00000000 0.00000000
vt -0.03343183 0.03227305
vt 1.03343201 0.03227282
vt 1.03343177 0.96772707
vt -0.03343207 0.96772718
vt 1.03343177 0.03227305
vt 1.03343201 0.96772718
vt -0.03343183 0.96772707
vt -0.03343213 0.03227282
vt 0.03227305 0.00049958
vt 0.96772718 0.00050092
vt 0.96772718 0.99949855
vt 0.03227305 0.99949723
vt -0.03343207 0.00050092
vt 1.03343177 0.00050279
vt 1.03343177 0.99950039
vt -0.03343207 0.99949855
vt 0.03227293 0.00050279
vt 0.96772718 0.00050160
vt 0.96772718 0.99949926
vt 0.03227293 0.99950039
vt -0.03343207 0.00050160
vt 1.03343177 0.00049958
vt 1.03343177 0.99949723
vt -0.03343213 0.99949926
f 1/1/1 2/2/2 3/3/3
f 3/3/3 4/4/4 1/1/1
f 5/5/5 6/6/6 7/7/7
f 7/7/7 8/8/8 5/5/5
f 9/9/9 10/10/10 11/11/11
f 11/11/11 12/12/12 9/9/9
f 13/13/13 14/14/14 15/15/15
f 15/15/15 16/16/16 13/13/13
f 17/17/17 18/18/18 19/19/19
f 19/19/19 20/20/20 17/17/17
f 21/21/21 22/22/22 23/23/23
f 23/23/23 24/24/24 21/21/21

