# https://github.com/mikedh/trimesh
mtllib B07QD6V13M_part_5.mtl
usemtl texture_ef650cfb-2b6e-468f-91af-09fd15c2b778
v 0.64299600 -0.31210943 0.30255384
v 0.64435973 -0.31110916 0.30391757
v 0.64299600 -0.31141698 0.30422463
v 0.64466679 -0.31141698 0.30255384
v 0.64299600 -0.30974708 0.30491673
v 0.64435973 -0.31110916 0.30391757
v 0.64466679 -0.30974708 0.30422463
v 0.64299600 -0.31141698 0.30422463
v 0.64435973 -0.31110916 0.30391757
v 0.64535888 -0.30974708 0.30255384
v 0.64466679 -0.30974708 0.30422463
v 0.64466679 -0.31141698 0.30255384
v 0.02093728 -0.31141698 0.30255384
v 0.02260806 -0.31141698 0.30422463
v 0.02124434 -0.31110916 0.30391757
v 0.02260806 -0.31210943 0.30255384
v 0.02024519 -0.30974708 0.30255384
v 0.02124434 -0.31110916 0.30391757
v 0.02093728 -0.30974708 0.30422463
v 0.02093728 -0.31141698 0.30255384
v 0.02260806 -0.30974708 0.30491673
v 0.02124434 -0.31110916 0.30391757
v 0.02260806 -0.31141698 0.30422463
v 0.02093728 -0.30974708 0.30422463
v 0.64299600 -0.31141698 0.29237173
v 0.64466679 -0.30974708 0.29237173
v 0.64435973 -0.31110916 0.29267878
v 0.64299600 -0.30974708 0.29167963
v 0.64299600 -0.31210943 0.29404249
v 0.64435973 -0.31110916 0.29267878
v 0.64466679 -0.31141698 0.29404249
v 0.64299600 -0.31141698 0.29237173
v 0.64535888 -0.30974708 0.29404249
v 0.64435973 -0.31110916 0.29267878
v 0.64466679 -0.30974708 0.29237173
v 0.64466679 -0.31141698 0.29404249
v 0.02124434 -0.31110916 0.29267878
v 0.02260806 -0.30974708 0.29167963
v 0.02260806 -0.31141698 0.29237173
v 0.02093728 -0.30974708 0.29237173
v 0.02124434 -0.31110916 0.29267878
v 0.02024519 -0.30974708 0.29404249
v 0.02093728 -0.30974708 0.29237173
v 0.02093728 -0.31141698 0.29404249
v 0.02124434 -0.31110916 0.29267878
v 0.02260806 -0.31210943 0.29404249
v 0.02093728 -0.31141698 0.29404249
v 0.02260806 -0.31141698 0.29237173
v 0.64435973 0.60932844 0.29267878
v 0.64299600 0.61032658 0.29404249
v 0.64466679 0.60963510 0.29404249
v 0.64299600 0.60963510 0.29237173
v 0.64299600 0.60796426 0.29167963
v 0.64435973 0.60932844 0.29267878
v 0.64466679 0.60796426 0.29237173
v 0.64299600 0.60963510 0.29237173
v 0.64535888 0.60796426 0.29404249
v 0.64435973 0.60932844 0.29267878
v 0.64466679 0.60963510 0.29404249
v 0.64466679 0.60796426 0.29237173
v 0.02260813 0.61032658 0.29404249
v 0.02124441 0.60932844 0.29267878
v 0.02093735 0.60963510 0.29404249
v 0.02260813 0.60963510 0.29237173
v 0.02093735 0.60796426 0.29237173
v 0.02093735 0.60963510 0.29404249
v 0.02124441 0.60932844 0.29267878
v 0.02024525 0.60796426 0.29404249
v 0.02260813 0.60796426 0.29167963
v 0.02124441 0.60932844 0.29267878
v 0.02260813 0.60963510 0.29237173
v 0.02093735 0.60796426 0.29237173
v 0.64466679 0.60963510 0.30255392
v 0.64299600 0.60963510 0.30422468
v 0.64435973 0.60932844 0.30391762
v 0.64299600 0.61032658 0.30255392
v 0.64466679 0.60796426 0.30422468
v 0.64466679 0.60963510 0.30255392
v 0.64435973 0.60932844 0.30391762
v 0.64535888 0.60796426 0.30255392
v 0.64299600 0.60963510 0.30422468
v 0.64466679 0.60796426 0.30422468
v 0.64435973 0.60932844 0.30391762
v 0.64299600 0.60796426 0.30491678
v 0.02260813 0.61032658 0.30255392
v 0.02124441 0.60932844 0.30391762
v 0.02260813 0.60963510 0.30422468
v 0.02093735 0.60963510 0.30255392
v 0.02124441 0.60932844 0.30391762
v 0.02260813 0.60796426 0.30491678
v 0.02260813 0.60963510 0.30422468
v 0.02093735 0.60796426 0.30422468
v 0.02024525 0.60796426 0.30255392
v 0.02124441 0.60932844 0.30391762
v 0.02093735 0.60963510 0.30255392
v 0.02093735 0.60796426 0.30422468
v 0.02024519 -0.30974708 0.29404249
v 0.02024525 0.60796426 0.30255392
v 0.02024525 0.60796426 0.29404249
v 0.02024519 -0.30974708 0.30255384
v 0.64535888 -0.30974708 0.30255384
v 0.64535888 0.60796426 0.29404249
v 0.64535888 0.60796426 0.30255392
v 0.64535888 -0.30974708 0.29404249
v 0.02260813 0.60796426 0.30491678
v 0.64299600 -0.30974708 0.30491673
v 0.64299600 0.60796426 0.30491678
v 0.02260806 -0.30974708 0.30491673
v 0.02260806 -0.31210943 0.29404249
v 0.64299600 -0.31210943 0.30255384
v 0.02260806 -0.31210943 0.30255384
v 0.64299600 -0.31210943 0.29404249
v 0.64299600 -0.30974708 0.29167963
v 0.02260813 0.60796426 0.29167963
v 0.64299600 0.60796426 0.29167963
v 0.02260806 -0.30974708 0.29167963
v 0.64299600 0.61032658 0.29404249
v 0.02260813 0.61032658 0.30255392
v 0.64299600 0.61032658 0.30255392
v 0.02260813 0.61032658 0.29404249
v 0.02260806 -0.31210943 0.30255384
v 0.64299600 -0.31141698 0.30422463
v 0.02260806 -0.31141698 0.30422463
v 0.64299600 -0.31210943 0.30255384
v 0.02260806 -0.30974708 0.30491673
v 0.64299600 -0.31141698 0.30422463
v 0.64299600 -0.30974708 0.30491673
v 0.02260806 -0.31141698 0.30422463
v 0.64466679 -0.31141698 0.30255384
v 0.64535888 -0.30974708 0.29404249
v 0.64535888 -0.30974708 0.30255384
v 0.64466679 -0.31141698 0.29404249
v 0.64299600 -0.31210943 0.29404249
v 0.64466679 -0.31141698 0.30255384
v 0.64299600 -0.31210943 0.30255384
v 0.64466679 -0.31141698 0.29404249
v 0.02260806 -0.31141698 0.29237173
v 0.64299600 -0.30974708 0.29167963
v 0.64299600 -0.31141698 0.29237173
v 0.02260806 -0.30974708 0.29167963
v 0.02260806 -0.31141698 0.29237173
v 0.64299600 -0.31210943 0.29404249
v 0.02260806 -0.31210943 0.29404249
v 0.64299600 -0.31141698 0.29237173
v 0.02093728 -0.31141698 0.29404249
v 0.02260806 -0.31210943 0.30255384
v 0.02093728 -0.31141698 0.30255384
v 0.02260806 -0.31210943 0.29404249
v 0.02093728 -0.31141698 0.29404249
v 0.02024519 -0.30974708 0.30255384
v 0.02024519 -0.30974708 0.29404249
v 0.02093728 -0.31141698 0.30255384
v 0.64535888 -0.30974708 0.29404249
v 0.64466679 0.60796426 0.29237173
v 0.64535888 0.60796426 0.29404249
v 0.64466679 -0.30974708 0.29237173
v 0.64299600 -0.30974708 0.29167963
v 0.64466679 0.60796426 0.29237173
v 0.64466679 -0.30974708 0.29237173
v 0.64299600 0.60796426 0.29167963
v 0.64299600 0.60963510 0.29237173
v 0.02260813 0.61032658 0.29404249
v 0.64299600 0.61032658 0.29404249
v 0.02260813 0.60963510 0.29237173
v 0.02260813 0.60796426 0.29167963
v 0.64299600 0.60963510 0.29237173
v 0.64299600 0.60796426 0.29167963
v 0.02260813 0.60963510 0.29237173
v 0.02260806 -0.30974708 0.29167963
v 0.02093735 0.60796426 0.29237173
v 0.02260813 0.60796426 0.29167963
v 0.02093728 -0.30974708 0.29237173
v 0.02093728 -0.30974708 0.29237173
v 0.02024525 0.60796426 0.29404249
v 0.02093735 0.60796426 0.29237173
v 0.02024519 -0.30974708 0.29404249
v 0.64535888 0.60796426 0.30255392
v 0.64466679 0.60963510 0.29404249
v 0.64466679 0.60963510 0.30255392
v 0.64535888 0.60796426 0.29404249
v 0.64466679 0.60963510 0.29404249
v 0.64299600 0.61032658 0.30255392
v 0.64466679 0.60963510 0.30255392
v 0.64299600 0.61032658 0.29404249
v 0.64299600 0.60796426 0.30491678
v 0.64466679 -0.30974708 0.30422463
v 0.64466679 0.60796426 0.30422468
v 0.64299600 -0.30974708 0.30491673
v 0.64466679 -0.30974708 0.30422463
v 0.64535888 0.60796426 0.30255392
v 0.64466679 0.60796426 0.30422468
v 0.64535888 -0.30974708 0.30255384
v 0.02260813 0.61032658 0.29404249
v 0.02093735 0.60963510 0.30255392
v 0.02260813 0.61032658 0.30255392
v 0.02093735 0.60963510 0.29404249
v 0.02024525 0.60796426 0.29404249
v 0.02093735 0.60963510 0.30255392
v 0.02093735 0.60963510 0.29404249
v 0.02024525 0.60796426 0.30255392
v 0.02260813 0.60963510 0.30422468
v 0.64299600 0.60796426 0.30491678
v 0.64299600 0.60963510 0.30422468
v 0.02260813 0.60796426 0.30491678
v 0.64299600 0.61032658 0.30255392
v 0.02260813 0.60963510 0.30422468
v 0.64299600 0.60963510 0.30422468
v 0.02260813 0.61032658 0.30255392
v 0.02024519 -0.30974708 0.30255384
v 0.02093735 0.60796426 0.30422468
v 0.02024525 0.60796426 0.30255392
v 0.02093728 -0.30974708 0.30422463
v 0.02093735 0.60796426 0.30422468
v 0.02260806 -0.30974708 0.30491673
v 0.02260813 0.60796426 0.30491678
v 0.02093728 -0.30974708 0.30422463
vn 0.32556988 -0.88769720 0.32557322
vn 0.32556985 -0.88769722 0.32557321
vn 0.32556984 -0.88769722 0.32557323
vn 0.32556984 -0.88769722 0.32557323
vn 0.32534147 -0.32551692 0.88780159
vn 0.32534147 -0.32551689 0.88780160
vn 0.32534147 -0.32551691 0.88780159
vn 0.32534147 -0.32551691 0.88780159
vn 0.88779601 -0.32552956 0.32534404
vn 0.88779599 -0.32552958 0.32534409
vn 0.88779600 -0.32552958 0.32534406
vn 0.88779599 -0.32552961 0.32534406
vn -0.32555978 -0.88770337 0.32556651
vn -0.32555978 -0.88770337 0.32556651
vn -0.32555977 -0.88770338 0.32556651
vn -0.32555975 -0.88770338 0.32556652
vn -0.88780189 -0.32551260 0.32534499
vn -0.88780190 -0.32551257 0.32534496
vn -0.88780187 -0.32551261 0.32534501
vn -0.88780190 -0.32551260 0.32534493
vn -0.32534800 -0.32551203 0.88780099
vn -0.32534803 -0.32551200 0.88780099
vn -0.32534804 -0.32551204 0.88780097
vn -0.32534803 -0.32551206 0.88780097
vn 0.32534455 -0.32551654 -0.88780060
vn 0.32534452 -0.32551654 -0.88780061
vn 0.32534451 -0.32551653 -0.88780062
vn 0.32534450 -0.32551655 -0.88780062
vn 0.32556453 -0.88769864 -0.32557466
vn 0.32556450 -0.88769865 -0.32557467
vn 0.32556451 -0.88769865 -0.32557465
vn 0.32556451 -0.88769865 -0.32557465
vn 0.88779475 -0.32553465 -0.32534239
vn 0.88779474 -0.32553467 -0.32534239
vn 0.88779475 -0.32553463 -0.32534240
vn 0.88779476 -0.32553463 -0.32534238
vn -0.32534201 -0.32551277 -0.88780291
vn -0.32534199 -0.32551273 -0.88780294
vn -0.32534201 -0.32551275 -0.88780292
vn -0.32534199 -0.32551273 -0.88780294
vn -0.88780253 -0.32551184 -0.32534399
vn -0.88780255 -0.32551181 -0.32534397
vn -0.88780254 -0.32551181 -0.32534399
vn -0.88780254 -0.32551181 -0.32534399
vn -0.32555718 -0.88770528 -0.32556391
vn -0.32555718 -0.88770528 -0.32556391
vn -0.32555716 -0.88770528 -0.32556392
vn -0.32555716 -0.88770528 -0.32556392
vn 0.32503241 0.88808857 -0.32504251
vn 0.32503239 0.88808858 -0.32504249
vn 0.32503241 0.88808856 -0.32504252
vn 0.32503241 0.88808856 -0.32504252
vn 0.32526141 0.32523444 -0.88793444
vn 0.32526141 0.32523447 -0.88793443
vn 0.32526139 0.32523445 -0.88793445
vn 0.32526142 0.32523445 -0.88793444
vn 0.88794617 0.32523867 -0.32522517
vn 0.88794617 0.32523865 -0.32522518
vn 0.88794617 0.32523865 -0.32522518
vn 0.88794619 0.32523862 -0.32522515
vn -0.32502435 0.88809940 -0.32502098
vn -0.32502435 0.88809941 -0.32502095
vn -0.32502435 0.88809940 -0.32502098
vn -0.32502435 0.88809940 -0.32502098
vn -0.88795225 0.32522108 -0.32522615
vn -0.88795224 0.32522110 -0.32522617
vn -0.88795223 0.32522113 -0.32522617
vn -0.88795223 0.32522114 -0.32522614
vn -0.32526369 0.32523880 -0.88793201
vn -0.32526366 0.32523880 -0.88793202
vn -0.32526368 0.32523882 -0.88793200
vn -0.32526369 0.32523880 -0.88793201
vn 0.32502887 0.88809485 0.32502887
vn 0.32502887 0.88809485 0.32502887
vn 0.32502885 0.88809487 0.32502885
vn 0.32502886 0.88809486 0.32502886
vn 0.88794780 0.32523981 0.32521958
vn 0.88794780 0.32523979 0.32521958
vn 0.88794779 0.32523981 0.32521960
vn 0.88794780 0.32523981 0.32521958
vn 0.32526620 0.32524260 0.88792970
vn 0.32526619 0.32524259 0.88792971
vn 0.32526622 0.32524261 0.88792969
vn 0.32526615 0.32524260 0.88792972
vn -0.32501978 0.88809658 0.32503325
vn -0.32501978 0.88809658 0.32503325
vn -0.32501979 0.88809657 0.32503326
vn -0.32501979 0.88809657 0.32503326
vn -0.32526192 0.32523033 0.88793576
vn -0.32526193 0.32523031 0.88793576
vn -0.32526190 0.32523031 0.88793577
vn -0.32526192 0.32523030 0.88793577
vn -0.88795436 0.32521820 0.32522327
vn -0.88795436 0.32521821 0.32522328
vn -0.88795436 0.32521820 0.32522327
vn -0.88795436 0.32521820 0.32522327
vn -1.00000000 0.00000007 0.00000000
vn -1.00000000 0.00000007 0.00000000
vn -1.00000000 0.00000007 0.00000000
vn -1.00000000 0.00000007 0.00000000
vn 1.00000000 0.00000000 0.00000000
vn 1.00000000 0.00000000 0.00000000
vn 1.00000000 0.00000000 0.00000000
vn 1.00000000 0.00000000 0.00000000
vn 0.00000000 -0.00000007 1.00000000
vn 0.00000000 -0.00000007 1.00000000
vn 0.00000000 -0.00000007 1.00000000
vn 0.00000000 -0.00000007 1.00000000
vn 0.00000000 -1.00000000 0.00000000
vn 0.00000000 -1.00000000 0.00000000
vn 0.00000000 -1.00000000 0.00000000
vn 0.00000000 -1.00000000 0.00000000
vn 0.00000000 0.00000000 -1.00000000
vn 0.00000000 0.00000000 -1.00000000
vn 0.00000000 0.00000000 -1.00000000
vn 0.00000000 0.00000000 -1.00000000
vn 0.00000000 1.00000000 0.00000000
vn 0.00000000 1.00000000 0.00000000
vn 0.00000000 1.00000000 0.00000000
vn 0.00000000 1.00000000 0.00000000
vn 0.00000000 -0.92380649 0.38285974
vn 0.00000000 -0.92380649 0.38285974
vn 0.00000000 -0.92380649 0.38285974
vn 0.00000000 -0.92380649 0.38285974
vn 0.00000000 -0.38286796 0.92380308
vn 0.00000000 -0.38286796 0.92380308
vn 0.00000000 -0.38286796 0.92380308
vn 0.00000000 -0.38286796 0.92380308
vn 0.92380082 -0.38287341 0.00000000
vn 0.92380082 -0.38287341 0.00000000
vn 0.92380082 -0.38287341 0.00000000
vn 0.92380082 -0.38287341 0.00000000
vn 0.38287653 -0.92379953 0.00000000
vn 0.38287653 -0.92379953 0.00000000
vn 0.38287653 -0.92379953 0.00000000
vn 0.38287653 -0.92379953 0.00000000
vn 0.00000000 -0.38286796 -0.92380308
vn 0.00000000 -0.38286796 -0.92380308
vn 0.00000000 -0.38286796 -0.92380308
vn 0.00000000 -0.38286796 -0.92380308
vn 0.00000000 -0.92380649 -0.38285974
vn 0.00000000 -0.92380649 -0.38285974
vn 0.00000000 -0.92380649 -0.38285974
vn 0.00000000 -0.92380649 -0.38285974
vn -0.38286936 -0.92380250 0.00000000
vn -0.38286936 -0.92380250 0.00000000
vn -0.38286936 -0.92380250 0.00000000
vn -0.38286936 -0.92380250 0.00000000
vn -0.92380123 -0.38287242 0.00000000
vn -0.92380123 -0.38287242 0.00000000
vn -0.92380123 -0.38287242 0.00000000
vn -0.92380123 -0.38287242 0.00000000
vn 0.92387251 0.00000000 -0.38270038
vn 0.92387251 0.00000000 -0.38270038
vn 0.92387251 0.00000000 -0.38270038
vn 0.92387251 0.00000000 -0.38270038
vn 0.38269695 0.00000000 -0.92387394
vn 0.38269695 0.00000000 -0.92387394
vn 0.38269695 0.00000000 -0.92387394
vn 0.38269695 0.00000000 -0.92387394
vn 0.00000000 0.92400740 -0.38237458
vn 0.00000000 0.92400740 -0.38237458
vn 0.00000000 0.92400740 -0.38237458
vn 0.00000000 0.92400740 -0.38237458
vn 0.00000000 0.38266692 -0.92388637
vn 0.00000000 0.38266692 -0.92388637
vn 0.00000000 0.38266692 -0.92388637
vn 0.00000000 0.38266692 -0.92388637
vn -0.38269695 0.00000003 -0.92387394
vn -0.38269695 0.00000003 -0.92387394
vn -0.38269697 0.00000003 -0.92387392
vn -0.38269697 0.00000003 -0.92387392
vn -0.92387250 0.00000007 -0.38270041
vn -0.92387250 0.00000007 -0.38270041
vn -0.92387250 0.00000007 -0.38270041
vn -0.92387250 0.00000007 -0.38270041
vn 0.92388347 0.38267391 0.00000000
vn 0.92388347 0.38267391 0.00000000
vn 0.92388347 0.38267391 0.00000000
vn 0.92388347 0.38267391 0.00000000
vn 0.38239184 0.92400026 0.00000000
vn 0.38239184 0.92400026 0.00000000
vn 0.38239184 0.92400026 0.00000000
vn 0.38239184 0.92400026 0.00000000
vn 0.38269697 -0.00000006 0.92387392
vn 0.38269697 -0.00000006 0.92387392
vn 0.38269695 -0.00000006 0.92387394
vn 0.38269695 -0.00000006 0.92387394
vn 0.92387251 -0.00000005 0.38270038
vn 0.92387251 -0.00000005 0.38270038
vn 0.92387251 -0.00000005 0.38270038
vn 0.92387251 -0.00000005 0.38270038
vn -0.38239461 0.92399912 0.00000000
vn -0.38239461 0.92399912 0.00000000
vn -0.38239461 0.92399912 0.00000000
vn -0.38239461 0.92399912 0.00000000
vn -0.92388308 0.38267488 0.00000000
vn -0.92388308 0.38267488 0.00000000
vn -0.92388308 0.38267488 0.00000000
vn -0.92388308 0.38267488 0.00000000
vn 0.00000000 0.38266692 0.92388637
vn 0.00000000 0.38266692 0.92388637
vn 0.00000000 0.38266692 0.92388637
vn 0.00000000 0.38266692 0.92388637
vn 0.00000000 0.92400740 0.38237458
vn 0.00000000 0.92400740 0.38237458
vn 0.00000000 0.92400740 0.38237458
vn 0.00000000 0.92400740 0.38237458
vn -0.92387250 0.00000004 0.38270041
vn -0.92387250 0.00000004 0.38270041
vn -0.92387250 0.00000004 0.38270041
vn -0.92387250 0.00000004 0.38270041
vn -0.38269695 -0.00000004 0.92387394
vn -0.38269695 -0.00000004 0.92387394
vn -0.38269697 -0.00000004 0.92387392
vn -0.38269697 -0.00000004 0.92387392
vt 0.57164329 0.02795112
vt 0.57132459 0.02826881
vt 0.57163131 0.02833253
vt 0.57126534 0.02796161
vt 0.57163996 0.02871376
vt 0.57132298 0.02839440
vt 0.57125866 0.02870196
vt 0.57163131 0.02833253
vt 0.57119751 0.02839375
vt 0.57087725 0.02871078
vt 0.57125866 0.02870196
vt 0.57089084 0.02833021
vt 0.70262080 0.02850372
vt 0.70224935 0.02887195
vt 0.70255786 0.02881044
vt 0.70223999 0.02849060
vt 0.70300066 0.02925730
vt 0.70268339 0.02893853
vt 0.70261925 0.02924490
vt 0.70299065 0.02887934
vt 0.70223784 0.02925318
vt 0.70255750 0.02893662
vt 0.70224935 0.02887195
vt 0.70261925 0.02924490
vt 0.57000482 0.41964018
vt 0.56963491 0.41926730
vt 0.56969666 0.41957557
vt 0.57001632 0.41925901
vt 0.57165015 0.02615565
vt 0.57133228 0.02583569
vt 0.57126939 0.02614248
vt 0.57164085 0.02577418
vt 0.56908166 0.02870190
vt 0.56876445 0.02838308
vt 0.56870031 0.02868950
vt 0.56907165 0.02832395
vt 0.70093155 0.42011899
vt 0.70061451 0.41979963
vt 0.70062310 0.42018086
vt 0.70099586 0.41981137
vt 0.70511651 0.02894908
vt 0.70479625 0.02926624
vt 0.70517766 0.02925736
vt 0.70480984 0.02888554
vt 0.70256573 0.02637732
vt 0.70224690 0.02669495
vt 0.70262492 0.02668440
vt 0.70225883 0.02631354
vt 0.57050371 0.22520083
vt 0.57082236 0.22488344
vt 0.57044441 0.22489381
vt 0.57081044 0.22526461
vt 0.57081908 0.22564608
vt 0.57050204 0.22532630
vt 0.57043767 0.22563428
vt 0.57081044 0.22526461
vt 0.56827301 0.22231197
vt 0.56795281 0.22262949
vt 0.56825948 0.22269279
vt 0.56789160 0.22232085
vt 0.70141977 0.22542405
vt 0.70173746 0.22574389
vt 0.70180053 0.22543716
vt 0.70142907 0.22580540
vt 0.70436972 0.22289002
vt 0.70399845 0.22325569
vt 0.70430553 0.22319686
vt 0.70398831 0.22287768
vt 0.70141762 0.22618681
vt 0.70173717 0.22586983
vt 0.70142907 0.22580540
vt 0.70179904 0.22617853
vt 0.57044852 0.22307462
vt 0.57081997 0.22270644
vt 0.57051152 0.22276795
vt 0.57082927 0.22308773
vt 0.57045001 0.22233331
vt 0.57007867 0.22269905
vt 0.57038587 0.22264022
vt 0.57006866 0.22232097
vt 0.57081997 0.22270644
vt 0.57045001 0.22233331
vt 0.57051182 0.22264206
vt 0.57083142 0.22232503
vt 0.70142668 0.22362852
vt 0.70174533 0.22331101
vt 0.70143861 0.22324723
vt 0.70180464 0.22361809
vt 0.70174700 0.22318560
vt 0.70143002 0.22286582
vt 0.70143861 0.22324723
vt 0.70181131 0.22287756
vt 0.70219272 0.22286868
vt 0.70187253 0.22318619
vt 0.70217919 0.22324950
vt 0.70181131 0.22287756
vt 0.70479625 0.02926624
vt 0.70219272 0.22286868
vt 0.70398831 0.22287768
vt 0.70300066 0.02925730
vt 0.57087725 0.02871078
vt 0.56827301 0.22231197
vt 0.57006866 0.22232097
vt 0.56908166 0.02870190
vt 0.70143002 0.22286582
vt 0.57163996 0.02871376
vt 0.57083142 0.22232503
vt 0.70223784 0.02925318
vt 0.70224690 0.02669495
vt 0.57164329 0.02795112
vt 0.70223999 0.02849060
vt 0.57165015 0.02615565
vt 0.57001632 0.41925901
vt 0.70141762 0.22618681
vt 0.57081908 0.22564608
vt 0.70061451 0.41979963
vt 0.57082236 0.22488344
vt 0.70142668 0.22362852
vt 0.57082927 0.22308773
vt 0.70141977 0.22542405
vt 0.70223999 0.02849060
vt 0.57163131 0.02833253
vt 0.70224935 0.02887195
vt 0.57164329 0.02795112
vt 0.70223784 0.02925318
vt 0.57163131 0.02833253
vt 0.57163996 0.02871376
vt 0.70224935 0.02887195
vt 0.57089084 0.02833021
vt 0.56908166 0.02870190
vt 0.57087725 0.02871078
vt 0.56907165 0.02832395
vt 0.57165015 0.02615565
vt 0.57126534 0.02796161
vt 0.57164329 0.02795112
vt 0.57126939 0.02614248
vt 0.70062310 0.42018086
vt 0.57001632 0.41925901
vt 0.57000482 0.41964018
vt 0.70061451 0.41979963
vt 0.70225883 0.02631354
vt 0.57165015 0.02615565
vt 0.70224690 0.02669495
vt 0.57164085 0.02577418
vt 0.70262492 0.02668440
vt 0.70223999 0.02849060
vt 0.70262080 0.02850372
vt 0.70224690 0.02669495
vt 0.70480984 0.02888554
vt 0.70300066 0.02925730
vt 0.70479625 0.02926624
vt 0.70299065 0.02887934
vt 0.56908166 0.02870190
vt 0.56789160 0.22232085
vt 0.56827301 0.22231197
vt 0.56870031 0.02868950
vt 0.57001632 0.41925901
vt 0.57043767 0.22563428
vt 0.56963491 0.41926730
vt 0.57081908 0.22564608
vt 0.57081044 0.22526461
vt 0.70141977 0.22542405
vt 0.57082236 0.22488344
vt 0.70142907 0.22580540
vt 0.70141762 0.22618681
vt 0.57081044 0.22526461
vt 0.57081908 0.22564608
vt 0.70142907 0.22580540
vt 0.70061451 0.41979963
vt 0.70179904 0.22617853
vt 0.70141762 0.22618681
vt 0.70099586 0.41981137
vt 0.70517766 0.02925736
vt 0.70398831 0.22287768
vt 0.70436972 0.22289002
vt 0.70479625 0.02926624
vt 0.57006866 0.22232097
vt 0.56825948 0.22269279
vt 0.57007867 0.22269905
vt 0.56827301 0.22231197
vt 0.57044441 0.22489381
vt 0.57082927 0.22308773
vt 0.57044852 0.22307462
vt 0.57082236 0.22488344
vt 0.57083142 0.22232503
vt 0.57125866 0.02870196
vt 0.57045001 0.22233331
vt 0.57163996 0.02871376
vt 0.57125866 0.02870196
vt 0.57006866 0.22232097
vt 0.57045001 0.22233331
vt 0.57087725 0.02871078
vt 0.70141977 0.22542405
vt 0.70180464 0.22361809
vt 0.70142668 0.22362852
vt 0.70180053 0.22543716
vt 0.70398831 0.22287768
vt 0.70217919 0.22324950
vt 0.70399845 0.22325569
vt 0.70219272 0.22286868
vt 0.70143861 0.22324723
vt 0.57083142 0.22232503
vt 0.57081997 0.22270644
vt 0.70143002 0.22286582
vt 0.57082927 0.22308773
vt 0.70143861 0.22324723
vt 0.57081997 0.22270644
vt 0.70142668 0.22362852
vt 0.70300066 0.02925730
vt 0.70181131 0.22287756
vt 0.70219272 0.22286868
vt 0.70261925 0.02924490
vt 0.70181131 0.22287756
vt 0.70223784 0.02925318
vt 0.70143002 0.22286582
vt 0.70261925 0.02924490
f 1/1/1 2/2/2 3/3/3
f 2/2/2 1/1/1 4/4/4
f 5/5/5 6/6/6 7/7/7
f 6/6/6 5/5/5 8/8/8
f 9/9/9 10/10/10 11/11/11
f 10/10/10 9/9/9 12/12/12
f 13/13/13 14/14/14 15/15/15
f 14/14/14 13/13/13 16/16/16
f 17/17/17 18/18/18 19/19/19
f 18/18/18 17/17/17 20/20/20
f 21/21/21 22/22/22 23/23/23
f 22/22/22 21/21/21 24/24/24
f 25/25/25 26/26/26 27/27/27
f 26/26/26 25/25/25 28/28/28
f 29/29/29 30/30/30 31/31/31
f 30/30/30 29/29/29 32/32/32
f 33/33/33 34/34/34 35/35/35
f 34/34/34 33/33/33 36/36/36
f 37/37/37 38/38/38 39/39/39
f 38/38/38 37/37/37 40/40/40
f 41/41/41 42/42/42 43/43/43
f 42/42/42 41/41/41 44/44/44
f 45/45/45 46/46/46 47/47/47
f 46/46/46 45/45/45 48/48/48
f 49/49/49 50/50/50 51/51/51
f 50/50/50 49/49/49 52/52/52
f 53/53/53 54/54/54 55/55/55
f 54/54/54 53/53/53 56/56/56
f 57/57/57 58/58/58 59/59/59
f 58/58/58 57/57/57 60/60/60
f 61/61/61 62/62/62 63/63/63
f 62/62/62 61/61/61 64/64/64
f 65/65/65 66/66/66 67/67/67
f 66/66/66 65/65/65 68/68/68
f 69/69/69 70/70/70 71/71/71
f 70/70/70 69/69/69 72/72/72
f 73/73/73 74/74/74 75/75/75
f 74/74/74 73/73/73 76/76/76
f 77/77/77 78/78/78 79/79/79
f 78/78/78 77/77/77 80/80/80
f 81/81/81 82/82/82 83/83/83
f 82/82/82 81/81/81 84/84/84
f 85/85/85 86/86/86 87/87/87
f 86/86/86 85/85/85 88/88/88
f 89/89/89 90/90/90 91/91/91
f 90/90/90 89/89/89 92/92/92
f 93/93/93 94/94/94 95/95/95
f 94/94/94 93/93/93 96/96/96
f 97/97/97 98/98/98 99/99/99
f 98/98/98 97/97/97 100/100/100
f 101/101/101 102/102/102 103/103/103
f 102/102/102 101/101/101 104/104/104
f 105/105/105 106/106/106 107/107/107
f 106/106/106 105/105/105 108/108/108
f 109/109/109 110/110/110 111/111/111
f 110/110/110 109/109/109 112/112/112
f 113/113/113 114/114/114 115/115/115
f 114/114/114 113/113/113 116/116/116
f 117/117/117 118/118/118 119/119/119
f 118/118/118 117/117/117 120/120/120
f 121/121/121 122/122/122 123/123/123
f 122/122/122 121/121/121 124/124/124
f 125/125/125 126/126/126 127/127/127
f 126/126/126 125/125/125 128/128/128
f 129/129/129 130/130/130 131/131/131
f 130/130/130 129/129/129 132/132/132
f 133/133/133 134/134/134 135/135/135
f 134/134/134 133/133/133 136/136/136
f 137/137/137 138/138/138 139/139/139
f 138/138/138 137/137/137 140/140/140
f 141/141/141 142/142/142 143/143/143
f 142/142/142 141/141/141 144/144/144
f 145/145/145 146/146/146 147/147/147
f 146/146/146 145/145/145 148/148/148
f 149/149/149 150/150/150 151/151/151
f 150/150/150 149/149/149 152/152/152
f 153/153/153 154/154/154 155/155/155
f 154/154/154 153/153/153 156/156/156
f 157/157/157 158/158/158 159/159/159
f 158/158/158 157/157/157 160/160/160
f 161/161/161 162/162/162 163/163/163
f 162/162/162 161/161/161 164/164/164
f 165/165/165 166/166/166 167/167/167
f 166/166/166 165/165/165 168/168/168
f 169/169/169 170/170/170 171/171/171
f 170/170/170 169/169/169 172/172/172
f 173/173/173 174/174/174 175/175/175
f 174/174/174 173/173/173 176/176/176
f 177/177/177 178/178/178 179/179/179
f 178/178/178 177/177/177 180/180/180
f 181/181/181 182/182/182 183/183/183
f 182/182/182 181/181/181 184/184/184
f 185/185/185 186/186/186 187/187/187
f 186/186/186 185/185/185 188/188/188
f 189/189/189 190/190/190 191/191/191
f 190/190/190 189/189/189 192/192/192
f 193/193/193 194/194/194 195/195/195
f 194/194/194 193/193/193 196/196/196
f 197/197/197 198/198/198 199/199/199
f 198/198/198 197/197/197 200/200/200
f 201/201/201 202/202/202 203/203/203
f 202/202/202 201/201/201 204/204/204
f 205/205/205 206/206/206 207/207/207
f 206/206/206 205/205/205 208/208/208
f 209/209/209 210/210/210 211/211/211
f 210/210/210 209/209/209 212/212/212
f 213/213/213 214/214/214 215/215/215
f 214/214/214 213/213/213 216/216/216

