# https://github.com/mikedh/trimesh
mtllib B07QD6V13M_part_7.mtl
usemtl texture_ef650cfb-2b6e-468f-91af-09fd15c2b778
v -0.32285837 0.16370199 0.33828431
v -0.32012575 0.16191047 0.33782100
v -0.32288593 0.16364482 0.33782100
v -0.32594866 0.16478334 0.33828431
v -0.32596277 0.16472150 0.33782100
v -0.32920207 0.16515000 0.33828431
v -0.32920207 0.16508643 0.33782100
v -0.33245551 0.16478334 0.33828431
v -0.33244137 0.16472150 0.33782100
v -0.33554580 0.16370199 0.33828431
v -0.33551823 0.16364482 0.33782100
v -0.33831802 0.16196012 0.33828431
v -0.33827842 0.16191047 0.33782100
v -0.34063310 0.15964506 0.33828431
v -0.34058342 0.15960546 0.33782100
v -0.34237497 0.15687292 0.33828431
v -0.34231772 0.15684536 0.33782100
v -0.34345634 0.15378261 0.33828431
v -0.34339438 0.15376844 0.33782100
v -0.34375936 0.15052917 0.33782100
v -0.34382293 0.15052917 0.33828431
v -0.34339438 0.14728989 0.33782100
v -0.34345634 0.14727573 0.33828431
v -0.34063310 0.14141327 0.33828431
v -0.33827842 0.13914787 0.33782100
v -0.33831802 0.13909811 0.33828431
v -0.33554580 0.13735620 0.33828431
v -0.33551823 0.13741352 0.33782100
v -0.33245551 0.13627485 0.33828431
v -0.33244137 0.13633684 0.33782100
v -0.32920207 0.13590834 0.33828431
v -0.32920207 0.13597190 0.33782100
v -0.32594866 0.13627485 0.33828431
v -0.32596277 0.13633684 0.33782100
v -0.32285837 0.13735620 0.33828431
v -0.32288593 0.13741352 0.33782100
v -0.32008615 0.13909811 0.33828431
v -0.32012575 0.13914787 0.33782100
v -0.31777107 0.14141327 0.33828431
v -0.31782074 0.14145293 0.33782100
v -0.31602915 0.14418541 0.33828431
v -0.31608642 0.14421298 0.33782100
v -0.31494783 0.14727573 0.33828431
v -0.31500979 0.14728989 0.33782100
v -0.31458124 0.15052917 0.33828431
v -0.31464481 0.15052917 0.33782100
v -0.31500979 0.15376844 0.33782100
v -0.31494783 0.15378261 0.33828431
v -0.31494783 0.15378261 0.33828431
v -0.31608644 0.15684536 0.33782100
v -0.31602920 0.15687292 0.33828431
v -0.31782074 0.15960546 0.33782100
v -0.31777107 0.15964506 0.33828431
v -0.32008615 0.16196012 0.33828431
v -0.31565739 0.15052917 0.33913874
v -0.31494783 0.14727573 0.33828431
v -0.31458124 0.15052917 0.33828431
v -0.31494783 0.15378261 0.33828431
v -0.31599699 0.15354318 0.33913874
v -0.31599699 0.14751516 0.33913874
v -0.31602915 0.14418541 0.33828431
v -0.31615633 0.15052917 0.33929976
v -0.31648344 0.14762625 0.33929976
v -0.31699875 0.14465240 0.33913874
v -0.31744827 0.14486883 0.33929976
v -0.31777107 0.14141327 0.33828431
v -0.31861243 0.14208420 0.33913874
v -0.32008615 0.13909811 0.33828431
v -0.31900254 0.14239532 0.33929976
v -0.32075713 0.13993952 0.33913874
v -0.32285837 0.13735620 0.33828431
v -0.32106819 0.14032959 0.33929976
v -0.32332527 0.13832580 0.33913874
v -0.32594866 0.13627485 0.33828431
v -0.32354178 0.13877537 0.33929976
v -0.32618811 0.13732411 0.33913874
v -0.32920207 0.13748348 0.33929976
v -0.32920207 0.13698451 0.33913874
v -0.32629915 0.13781049 0.33929976
v -0.32920207 0.13590834 0.33828431
v -0.33210502 0.13781049 0.33929976
v -0.33221605 0.13732411 0.33913874
v -0.33245551 0.13627485 0.33828431
v -0.33486239 0.13877537 0.33929976
v -0.33507889 0.13832580 0.33913874
v -0.33554580 0.13735620 0.33828431
v -0.33733597 0.14032959 0.33929976
v -0.33764704 0.13993952 0.33913874
v -0.33831802 0.13909811 0.33828431
v -0.33940163 0.14239532 0.33929976
v -0.33979174 0.14208420 0.33913874
v -0.34063310 0.14141327 0.33828431
v -0.34095585 0.14486883 0.33929976
v -0.34140539 0.14465240 0.33913874
v -0.34237497 0.14418541 0.33828431
v -0.34192073 0.14762625 0.33929976
v -0.34240718 0.14751516 0.33913874
v -0.34058342 0.14145293 0.33782100
v -0.34224784 0.15052917 0.33929976
v -0.34274678 0.15052917 0.33913874
v -0.34382293 0.15052917 0.33828431
v -0.34231772 0.14421298 0.33782100
v -0.34345634 0.15378261 0.33828431
v -0.34240718 0.15354318 0.33913874
v -0.34192073 0.15343209 0.33929976
v -0.34237497 0.15687292 0.33828431
v -0.34140539 0.15640594 0.33913874
v -0.34095585 0.15618956 0.33929976
v -0.34063310 0.15964506 0.33828431
v -0.33979174 0.15897419 0.33913874
v -0.33940163 0.15866302 0.33929976
v -0.33831802 0.16196012 0.33828431
v -0.33764704 0.16111881 0.33913874
v -0.33554580 0.16370199 0.33828431
v -0.33733597 0.16072880 0.33929976
v -0.33507889 0.16273244 0.33913874
v -0.33245551 0.16478334 0.33828431
v -0.33486239 0.16228297 0.33929976
v -0.33221605 0.16373423 0.33913874
v -0.33210502 0.16324775 0.33929976
v -0.32920207 0.16515000 0.33828431
v -0.32920207 0.16407383 0.33913874
v -0.32629915 0.16324775 0.33929976
v -0.32618811 0.16373423 0.33913874
v -0.32920207 0.16357491 0.33929976
v -0.32594866 0.16478334 0.33828431
v -0.32354178 0.16228297 0.33929976
v -0.32332527 0.16273244 0.33913874
v -0.32285837 0.16370199 0.33828431
v -0.32106819 0.16072880 0.33929976
v -0.32075713 0.16111881 0.33913874
v -0.32008615 0.16196012 0.33828431
v -0.31900254 0.15866302 0.33929976
v -0.31861243 0.15897419 0.33913874
v -0.31777107 0.15964506 0.33828431
v -0.31744832 0.15618956 0.33929976
v -0.31699878 0.15640594 0.33913874
v -0.31602920 0.15687292 0.33828431
v -0.31648344 0.15343209 0.33929976
v -0.32920207 0.15052917 0.33929976
v -0.31925284 0.15280001 0.30342290
v -0.31899696 0.15052917 0.30342290
v -0.31925284 0.14825833 0.30342290
v -0.32000758 0.14610132 0.30342290
v -0.32122340 0.14416632 0.30342290
v -0.32283928 0.14255052 0.30342290
v -0.32477427 0.14133478 0.30342290
v -0.32693123 0.14057989 0.30342290
v -0.32920207 0.14032395 0.30342290
v -0.33147293 0.14057989 0.30342290
v -0.33362990 0.14133478 0.30342290
v -0.33556489 0.14255052 0.30342290
v -0.33718077 0.14416632 0.30342290
v -0.33839656 0.14610132 0.30342290
v -0.33915133 0.14825833 0.30342290
v -0.33940718 0.15052917 0.30342290
v -0.33915133 0.15280001 0.30342290
v -0.33839656 0.15495702 0.30342290
v -0.33718074 0.15689201 0.30342290
v -0.33556489 0.15850782 0.30342290
v -0.33362990 0.15972361 0.30342290
v -0.33147293 0.16047845 0.30342290
v -0.32920207 0.16073423 0.30342290
v -0.32693123 0.16047845 0.30342290
v -0.32477427 0.15972361 0.30342290
v -0.32283928 0.15850782 0.30342290
v -0.32122340 0.15689201 0.30342290
v -0.32000761 0.15495702 0.30342290
v -0.31500979 0.15376844 0.33782100
v -0.31925284 0.15280001 0.30342290
vn 0.34849872 0.72364775 0.59572021
vn 0.61853879 0.77563702 -0.12568599
vn 0.43045144 0.89382003 -0.12568737
vn 0.17873816 0.78305339 0.59571810
vn 0.22075974 0.96719591 -0.12568698
vn -0.00000024 0.80321457 0.59568981
vn 0.00000003 0.99206992 -0.12568717
vn -0.17873989 0.78305423 0.59571648
vn -0.22076030 0.96719555 -0.12568871
vn -0.34849647 0.72364916 0.59571982
vn -0.43044844 0.89382141 -0.12568780
vn -0.50078567 0.62797417 0.59570308
vn -0.61853576 0.77563912 -0.12568794
vn -0.62796839 0.50078703 0.59570803
vn -0.77563262 0.61854428 -0.12568620
vn -0.72366161 0.34849901 0.59570321
vn -0.89382634 0.43043854 -0.12568671
vn -0.78307037 0.17873482 0.59569679
vn -0.96719473 0.22076340 -0.12568959
vn -0.99206980 -0.00000002 -0.12568818
vn -0.80321150 -0.00000031 0.59569395
vn -0.96719483 -0.22076378 -0.12568817
vn -0.78306569 -0.17873608 0.59570256
vn -0.62798038 -0.50078865 0.59569403
vn -0.61853617 -0.77563857 -0.12568936
vn -0.50080302 -0.62798102 0.59568127
vn -0.34851100 -0.72368124 0.59567235
vn -0.43044933 -0.89382074 -0.12568953
vn -0.17872540 -0.78307483 0.59569375
vn -0.22077231 -0.96719276 -0.12568912
vn 0.00000251 -0.80319302 0.59571887
vn 0.00000001 -0.99206993 -0.12568714
vn 0.17872810 -0.78306547 0.59570524
vn 0.22077063 -0.96719331 -0.12568783
vn 0.34851022 -0.72367397 0.59568164
vn 0.43045069 -0.89382007 -0.12568961
vn 0.50079899 -0.62798189 0.59568374
vn 0.61853872 -0.77563654 -0.12568934
vn 0.62797783 -0.50079487 0.59569148
vn 0.77562695 -0.61855120 -0.12568705
vn 0.72366676 -0.34850328 0.59569446
vn 0.89382612 -0.43043845 -0.12568855
vn 0.78306710 -0.17873104 0.59570222
vn 0.96719718 -0.22075254 -0.12568983
vn 0.80321275 0.00000048 0.59569227
vn 0.99206978 0.00000004 -0.12568834
vn 0.96719606 0.22075834 -0.12568829
vn 0.78307061 0.17873753 0.59569566
vn 0.78307061 0.17873753 0.59569566
vn 0.89382601 0.43043893 -0.12568769
vn 0.72365645 0.34850227 0.59570757
vn 0.77562971 0.61854828 -0.12568440
vn 0.62796140 0.50078249 0.59571922
vn 0.50078325 0.62797002 0.59570948
vn 0.55236849 0.00000001 0.83360006
vn 0.78306710 -0.17873104 0.59570222
vn 0.80321275 0.00000048 0.59569227
vn 0.78307061 0.17873753 0.59569566
vn 0.53851634 0.12292047 0.83360105
vn 0.53851086 -0.12291700 0.83360510
vn 0.72366676 -0.34850328 0.59569446
vn 0.02654187 -0.00000005 0.99964770
vn 0.02587586 -0.00590558 0.99964772
vn 0.49766359 -0.23966189 0.83360250
vn 0.02391505 -0.01151603 0.99964766
vn 0.62797783 -0.50079487 0.59569148
vn 0.43185524 -0.34439672 0.83360179
vn 0.50079899 -0.62798189 0.59568374
vn 0.02074944 -0.01654762 0.99964776
vn 0.34439026 -0.43184979 0.83360729
vn 0.34851022 -0.72367397 0.59568164
vn 0.01654575 -0.02075117 0.99964775
vn 0.23966187 -0.49765932 0.83360505
vn 0.17872810 -0.78306547 0.59570524
vn 0.01150816 -0.02391307 0.99964780
vn 0.12291001 -0.53849877 0.83361394
vn 0.00000044 -0.02654060 0.99964774
vn 0.00000364 -0.55234360 0.83361655
vn 0.00590641 -0.02587692 0.99964769
vn 0.00000251 -0.80319302 0.59571887
vn -0.00591204 -0.02587548 0.99964769
vn -0.12290925 -0.53851607 0.83360288
vn -0.17872540 -0.78307483 0.59569375
vn -0.01151432 -0.02391097 0.99964778
vn -0.23966699 -0.49767148 0.83359633
vn -0.34851100 -0.72368124 0.59567235
vn -0.01654593 -0.02075079 0.99964776
vn -0.34439072 -0.43185054 0.83360671
vn -0.50080302 -0.62798102 0.59568127
vn -0.02074988 -0.01654752 0.99964775
vn -0.43185634 -0.34439553 0.83360172
vn -0.62798038 -0.50078865 0.59569403
vn -0.02391297 -0.01151600 0.99964771
vn -0.49766395 -0.23966296 0.83360198
vn -0.72366332 -0.34850409 0.59569817
vn -0.02587388 -0.00590570 0.99964777
vn -0.53851142 -0.12291924 0.83360441
vn -0.77563248 -0.61854431 -0.12568690
vn -0.02654200 0.00000003 0.99964770
vn -0.55236830 0.00000011 0.83360018
vn -0.80321150 -0.00000031 0.59569395
vn -0.89382609 -0.43043898 -0.12568691
vn -0.78307037 0.17873482 0.59569679
vn -0.53851392 0.12291925 0.83360279
vn -0.02587671 0.00590578 0.99964770
vn -0.72366161 0.34849901 0.59570321
vn -0.49766161 0.23965925 0.83360444
vn -0.02391526 0.01151620 0.99964766
vn -0.62796839 0.50078703 0.59570803
vn -0.43185618 0.34439781 0.83360086
vn -0.02074992 0.01654783 0.99964774
vn -0.50078567 0.62797417 0.59570308
vn -0.34439023 0.43186857 0.83359757
vn -0.34849647 0.72364916 0.59571982
vn -0.01654603 0.02075107 0.99964775
vn -0.23966671 0.49767892 0.83359197
vn -0.17873989 0.78305423 0.59571648
vn -0.01151501 0.02391369 0.99964771
vn -0.12292227 0.53852662 0.83359414
vn -0.00590467 0.02587549 0.99964773
vn -0.00000024 0.80321457 0.59568981
vn 0.00000079 0.55236650 0.83360137
vn 0.00590542 0.02587468 0.99964775
vn 0.12292084 0.53851345 0.83360286
vn 0.00000046 0.02654100 0.99964773
vn 0.17873816 0.78305339 0.59571810
vn 0.01151507 0.02391310 0.99964772
vn 0.23966910 0.49767005 0.83359657
vn 0.34849872 0.72364775 0.59572021
vn 0.01654672 0.02075180 0.99964772
vn 0.34439256 0.43186747 0.83359717
vn 0.50078325 0.62797002 0.59570948
vn 0.02074995 0.01654782 0.99964774
vn 0.43185911 0.34440056 0.83359820
vn 0.62796140 0.50078249 0.59571922
vn 0.02391188 0.01151540 0.99964775
vn 0.49766532 0.23966496 0.83360059
vn 0.72365645 0.34850227 0.59570757
vn 0.02587390 0.00590566 0.99964777
vn -0.00000052 0.00000000 1.00000000
vn 0.96721644 0.22076316 -0.12552285
vn 0.99209074 0.00000002 -0.12552273
vn 0.96721758 -0.22075734 -0.12552434
vn 0.89384508 -0.43044737 -0.12552304
vn 0.77564303 -0.61856482 -0.12552073
vn 0.61855155 -0.77565348 -0.12552157
vn 0.43046012 -0.89383911 -0.12552184
vn 0.22077586 -0.96721381 -0.12552076
vn 0.00000001 -0.99209107 -0.12552014
vn -0.22077770 -0.96721321 -0.12552217
vn -0.43045877 -0.89383976 -0.12552185
vn -0.61854875 -0.77565569 -0.12552170
vn -0.77564842 -0.61855801 -0.12552098
vn -0.89384502 -0.43044788 -0.12552171
vn -0.96721522 -0.22076860 -0.12552266
vn -0.99209074 -0.00000001 -0.12552273
vn -0.96721510 0.22076836 -0.12552400
vn -0.89384519 0.43044755 -0.12552162
vn -0.77564857 0.61855769 -0.12552162
vn -0.61854859 0.77565559 -0.12552314
vn -0.43045773 0.89384000 -0.12552370
vn -0.22076503 0.96721573 -0.12552503
vn 0.00000001 0.99209075 -0.12552267
vn 0.22076450 0.96721613 -0.12552287
vn 0.43046088 0.89383855 -0.12552320
vn 0.61855159 0.77565345 -0.12552157
vn 0.77564566 0.61856157 -0.12552053
vn 0.89384488 0.43044775 -0.12552314
vn 0.96719606 0.22075834 -0.12568829
vn 0.96721644 0.22076316 -0.12552285
vt 0.37323052 0.89756876
vt 0.37259442 0.89785171
vt 0.37325612 0.89766407
vt 0.37389991 0.89739919
vt 0.37392282 0.89749515
vt 0.37457383 0.89724839
vt 0.37459400 0.89734495
vt 0.37525168 0.89711666
vt 0.37526911 0.89721370
vt 0.37593296 0.89700389
vt 0.37594765 0.89710152
vt 0.37661716 0.89691055
vt 0.37662911 0.89700842
vt 0.37730369 0.89683628
vt 0.37731290 0.89693451
vt 0.37799203 0.89678144
vt 0.37799850 0.89687991
vt 0.37868166 0.89674604
vt 0.37868533 0.89684463
vt 0.37937286 0.89682865
vt 0.37937194 0.89673001
vt 0.38006058 0.89683199
vt 0.38006118 0.89673322
vt 0.38144356 0.89679837
vt 0.38212115 0.89695799
vt 0.38213134 0.89685982
vt 0.38281709 0.89694083
vt 0.38280416 0.89703858
vt 0.38350031 0.89704084
vt 0.38348463 0.89713824
vt 0.38418046 0.89716017
vt 0.38416204 0.89725709
vt 0.38485700 0.89729851
vt 0.38483590 0.89739496
vt 0.38552940 0.89745581
vt 0.38550556 0.89755160
vt 0.38619709 0.89763206
vt 0.38617057 0.89772701
vt 0.38685960 0.89782691
vt 0.38683039 0.89792114
vt 0.38751629 0.89804035
vt 0.38748446 0.89813375
vt 0.38816679 0.89827222
vt 0.38813233 0.89836466
vt 0.38881052 0.89852238
vt 0.38877344 0.89861381
vt 0.38940719 0.89888108
vt 0.38944691 0.89879078
vt 0.37060857 0.89843380
vt 0.37128824 0.89828259
vt 0.37125465 0.89818978
vt 0.37193826 0.89805794
vt 0.37190735 0.89796418
vt 0.37256616 0.89775717
vt 0.38154444 0.89094931
vt 0.38227454 0.89100599
vt 0.38164952 0.89067912
vt 0.38096744 0.89049953
vt 0.38092509 0.89078641
vt 0.38211194 0.89124602
vt 0.38281116 0.89146370
vt 0.38150451 0.89105237
vt 0.38205010 0.89133763
vt 0.38259920 0.89166152
vt 0.38251853 0.89173716
vt 0.38323244 0.89202940
vt 0.38298178 0.89217520
vt 0.38351724 0.89267468
vt 0.38288632 0.89223081
vt 0.38324052 0.89276099
vt 0.38365135 0.89336717
vt 0.38313502 0.89279401
vt 0.38336229 0.89338970
vt 0.38362801 0.89407206
vt 0.38325214 0.89339840
vt 0.38334116 0.89402980
vt 0.38307506 0.89460921
vt 0.38317814 0.89464909
vt 0.38323182 0.89401376
vt 0.38344833 0.89475423
vt 0.38278973 0.89515483
vt 0.38288131 0.89521670
vt 0.38312140 0.89537925
vt 0.38239008 0.89562333
vt 0.38246560 0.89570403
vt 0.38266349 0.89591593
vt 0.38189617 0.89599121
vt 0.38195184 0.89608663
vt 0.38209757 0.89633727
vt 0.38133278 0.89623988
vt 0.38136572 0.89634538
vt 0.38145179 0.89662218
vt 0.38072842 0.89635718
vt 0.38073617 0.89646727
vt 0.38075560 0.89675629
vt 0.38011539 0.89633697
vt 0.38010040 0.89644635
vt 0.38143611 0.89689672
vt 0.37952003 0.89618033
vt 0.37948021 0.89628345
vt 0.37937537 0.89655364
vt 0.38074967 0.89685476
vt 0.37874979 0.89622682
vt 0.37891236 0.89598668
vt 0.37897420 0.89589512
vt 0.37821293 0.89576900
vt 0.37842485 0.89557117
vt 0.37850553 0.89549565
vt 0.37779140 0.89520329
vt 0.37804204 0.89505762
vt 0.37813753 0.89500189
vt 0.37750638 0.89455801
vt 0.37778318 0.89447170
vt 0.37737209 0.89386559
vt 0.37788865 0.89443868
vt 0.37766114 0.89384300
vt 0.37739527 0.89316064
vt 0.37777132 0.89383429
vt 0.37768212 0.89320290
vt 0.37779146 0.89321893
vt 0.37757474 0.89247847
vt 0.37784496 0.89258355
vt 0.37823322 0.89207780
vt 0.37814158 0.89201599
vt 0.37794805 0.89262348
vt 0.37790152 0.89185333
vt 0.37863263 0.89160937
vt 0.37855712 0.89152867
vt 0.37835923 0.89131677
vt 0.37912628 0.89124155
vt 0.37907064 0.89114606
vt 0.37892488 0.89089537
vt 0.37968943 0.89099270
vt 0.37965634 0.89088720
vt 0.37957007 0.89061046
vt 0.38029382 0.89087552
vt 0.38028505 0.89076537
vt 0.38026249 0.89047629
vt 0.38090914 0.89089572
vt 0.38051167 0.89361632
vt 0.38647372 0.90558171
vt 0.38602933 0.90539455
vt 0.38557994 0.90522003
vt 0.38512582 0.90505815
vt 0.38466731 0.90490913
vt 0.38420480 0.90477312
vt 0.38373864 0.90465009
vt 0.38326925 0.90454030
vt 0.38279691 0.90444362
vt 0.38232204 0.90436041
vt 0.38184503 0.90429050
vt 0.38136619 0.90423399
vt 0.38088602 0.90419108
vt 0.38040474 0.90416163
vt 0.37992284 0.90414566
vt 0.37944072 0.90414339
vt 0.37895876 0.90415454
vt 0.37847725 0.90417933
vt 0.37799665 0.90421760
vt 0.37751728 0.90426940
vt 0.37703967 0.90433460
vt 0.37656397 0.90441322
vt 0.37609071 0.90450525
vt 0.37562025 0.90461051
vt 0.37515295 0.90472901
vt 0.37468913 0.90486050
vt 0.37422919 0.90500498
vt 0.37377349 0.90516233
vt 0.37064487 0.89852560
vt 0.37332240 0.90533257
f 1/1/1 2/2/2 3/3/3
f 4/4/4 3/3/3 5/5/5
f 6/6/6 5/5/5 7/7/7
f 8/8/8 7/7/7 9/9/9
f 10/10/10 9/9/9 11/11/11
f 12/12/12 11/11/11 13/13/13
f 14/14/14 13/13/13 15/15/15
f 16/16/16 15/15/15 17/17/17
f 18/18/18 17/17/17 19/19/19
f 18/18/18 20/20/20 21/21/21
f 21/21/21 22/22/22 23/23/23
f 24/24/24 25/25/25 26/26/26
f 27/27/27 25/25/25 28/28/28
f 29/29/29 28/28/28 30/30/30
f 31/31/31 30/30/30 32/32/32
f 33/33/33 32/32/32 34/34/34
f 35/35/35 34/34/34 36/36/36
f 37/37/37 36/36/36 38/38/38
f 39/39/39 38/38/38 40/40/40
f 41/41/41 40/40/40 42/42/42
f 43/43/43 42/42/42 44/44/44
f 45/45/45 44/44/44 46/46/46
f 45/45/45 47/47/47 48/48/48
f 49/49/49 50/50/50 51/51/51
f 51/51/51 52/52/52 53/53/53
f 54/54/54 52/52/52 2/2/2
f 55/55/55 56/56/56 57/57/57
f 55/55/55 58/58/58 59/59/59
f 56/56/56 55/55/55 60/60/60
f 60/60/60 61/61/61 56/56/56
f 60/60/60 62/62/62 63/63/63
f 61/61/61 60/60/60 64/64/64
f 64/64/64 63/63/63 65/65/65
f 64/64/64 66/66/66 61/61/61
f 66/66/66 64/64/64 67/67/67
f 67/67/67 68/68/68 66/66/66
f 67/67/67 65/65/65 69/69/69
f 68/68/68 67/67/67 70/70/70
f 70/70/70 71/71/71 68/68/68
f 70/70/70 69/69/69 72/72/72
f 71/71/71 70/70/70 73/73/73
f 73/73/73 74/74/74 71/71/71
f 73/73/73 72/72/72 75/75/75
f 76/76/76 77/77/77 78/78/78
f 76/76/76 75/75/75 79/79/79
f 74/74/74 78/78/78 80/80/80
f 74/74/74 73/73/73 76/76/76
f 78/78/78 74/74/74 76/76/76
f 78/78/78 81/81/81 82/82/82
f 80/80/80 82/82/82 83/83/83
f 82/82/82 80/80/80 78/78/78
f 82/82/82 84/84/84 85/85/85
f 83/83/83 85/85/85 86/86/86
f 85/85/85 87/87/87 88/88/88
f 85/85/85 83/83/83 82/82/82
f 86/86/86 88/88/88 89/89/89
f 88/88/88 86/86/86 85/85/85
f 88/88/88 90/90/90 91/91/91
f 89/89/89 91/91/91 92/92/92
f 91/91/91 89/89/89 88/88/88
f 91/91/91 93/93/93 94/94/94
f 92/92/92 94/94/94 95/95/95
f 94/94/94 96/96/96 97/97/97
f 94/94/94 92/92/92 91/91/91
f 95/95/95 98/98/98 24/24/24
f 95/95/95 97/97/97 23/23/23
f 97/97/97 99/99/99 100/100/100
f 97/97/97 95/95/95 94/94/94
f 23/23/23 100/100/100 101/101/101
f 23/23/23 102/102/102 95/95/95
f 100/100/100 23/23/23 97/97/97
f 100/100/100 103/103/103 101/101/101
f 103/103/103 100/100/100 104/104/104
f 104/104/104 99/99/99 105/105/105
f 104/104/104 106/106/106 103/103/103
f 106/106/106 104/104/104 107/107/107
f 107/107/107 105/105/105 108/108/108
f 107/107/107 109/109/109 106/106/106
f 109/109/109 107/107/107 110/110/110
f 110/110/110 108/108/108 111/111/111
f 110/110/110 112/112/112 109/109/109
f 112/112/112 110/110/110 113/113/113
f 113/113/113 114/114/114 112/112/112
f 113/113/113 111/111/111 115/115/115
f 114/114/114 113/113/113 116/116/116
f 116/116/116 117/117/117 114/114/114
f 116/116/116 115/115/115 118/118/118
f 117/117/117 116/116/116 119/119/119
f 119/119/119 118/118/118 120/120/120
f 119/119/119 121/121/121 117/117/117
f 122/122/122 123/123/123 124/124/124
f 122/122/122 120/120/120 125/125/125
f 121/121/121 119/119/119 122/122/122
f 121/121/121 124/124/124 126/126/126
f 124/124/124 127/127/127 128/128/128
f 124/124/124 121/121/121 122/122/122
f 126/126/126 128/128/128 129/129/129
f 128/128/128 130/130/130 131/131/131
f 128/128/128 126/126/126 124/124/124
f 129/129/129 131/131/131 132/132/132
f 131/131/131 133/133/133 134/134/134
f 131/131/131 129/129/129 128/128/128
f 132/132/132 134/134/134 135/135/135
f 134/134/134 136/136/136 137/137/137
f 134/134/134 132/132/132 131/131/131
f 135/135/135 137/137/137 138/138/138
f 58/58/58 55/55/55 57/57/57
f 137/137/137 139/139/139 59/59/59
f 137/137/137 135/135/135 134/134/134
f 138/138/138 59/59/59 58/58/58
f 59/59/59 62/62/62 55/55/55
f 59/59/59 138/138/138 137/137/137
f 62/62/62 140/140/140 63/63/63
f 62/62/62 139/139/139 140/140/140
f 62/62/62 60/60/60 55/55/55
f 62/62/62 59/59/59 139/139/139
f 63/63/63 140/140/140 65/65/65
f 63/63/63 64/64/64 60/60/60
f 65/65/65 67/67/67 64/64/64
f 65/65/65 140/140/140 69/69/69
f 69/69/69 140/140/140 72/72/72
f 69/69/69 70/70/70 67/67/67
f 72/72/72 73/73/73 70/70/70
f 72/72/72 140/140/140 75/75/75
f 75/75/75 76/76/76 73/73/73
f 75/75/75 140/140/140 79/79/79
f 79/79/79 140/140/140 77/77/77
f 77/77/77 76/76/76 79/79/79
f 81/81/81 78/78/78 77/77/77
f 84/84/84 82/82/82 81/81/81
f 87/87/87 85/85/85 84/84/84
f 90/90/90 88/88/88 87/87/87
f 93/93/93 91/91/91 90/90/90
f 96/96/96 94/94/94 93/93/93
f 99/99/99 97/97/97 96/96/96
f 99/99/99 104/104/104 100/100/100
f 105/105/105 107/107/107 104/104/104
f 108/108/108 110/110/110 107/107/107
f 111/111/111 113/113/113 110/110/110
f 115/115/115 116/116/116 113/113/113
f 118/118/118 119/119/119 116/116/116
f 120/120/120 122/122/122 119/119/119
f 125/125/125 120/120/120 140/140/140
f 123/123/123 122/122/122 125/125/125
f 123/123/123 125/125/125 140/140/140
f 127/127/127 124/124/124 123/123/123
f 127/127/127 123/123/123 140/140/140
f 130/130/130 128/128/128 127/127/127
f 130/130/130 127/127/127 140/140/140
f 133/133/133 131/131/131 130/130/130
f 133/133/133 130/130/130 140/140/140
f 140/140/140 96/96/96 93/93/93
f 140/140/140 111/111/111 108/108/108
f 140/140/140 115/115/115 111/111/111
f 140/140/140 118/118/118 115/115/115
f 140/140/140 120/120/120 118/118/118
f 140/140/140 90/90/90 87/87/87
f 140/140/140 81/81/81 77/77/77
f 140/140/140 87/87/87 84/84/84
f 140/140/140 84/84/84 81/81/81
f 140/140/140 105/105/105 99/99/99
f 140/140/140 99/99/99 96/96/96
f 140/140/140 93/93/93 90/90/90
f 140/140/140 108/108/108 105/105/105
f 136/136/136 134/134/134 133/133/133
f 136/136/136 133/133/133 140/140/140
f 139/139/139 136/136/136 140/140/140
f 139/139/139 137/137/137 136/136/136
f 47/47/47 45/45/45 46/46/46
f 141/141/141 46/46/46 142/142/142
f 46/46/46 143/143/143 142/142/142
f 46/46/46 141/141/141 47/47/47
f 143/143/143 46/46/46 44/44/44
f 44/44/44 45/45/45 43/43/43
f 44/44/44 144/144/144 143/143/143
f 144/144/144 44/44/44 42/42/42
f 42/42/42 145/145/145 144/144/144
f 42/42/42 43/43/43 41/41/41
f 145/145/145 42/42/42 40/40/40
f 40/40/40 146/146/146 145/145/145
f 40/40/40 41/41/41 39/39/39
f 146/146/146 40/40/40 38/38/38
f 38/38/38 147/147/147 146/146/146
f 38/38/38 39/39/39 37/37/37
f 147/147/147 38/38/38 36/36/36
f 36/36/36 148/148/148 147/147/147
f 36/36/36 37/37/37 35/35/35
f 148/148/148 36/36/36 34/34/34
f 34/34/34 149/149/149 148/148/148
f 34/34/34 35/35/35 33/33/33
f 149/149/149 34/34/34 32/32/32
f 32/32/32 150/150/150 149/149/149
f 32/32/32 33/33/33 31/31/31
f 150/150/150 32/32/32 30/30/30
f 30/30/30 151/151/151 150/150/150
f 30/30/30 31/31/31 29/29/29
f 151/151/151 30/30/30 28/28/28
f 28/28/28 29/29/29 27/27/27
f 28/28/28 152/152/152 151/151/151
f 25/25/25 24/24/24 98/98/98
f 25/25/25 27/27/27 26/26/26
f 152/152/152 98/98/98 153/153/153
f 152/152/152 28/28/28 25/25/25
f 98/98/98 152/152/152 25/25/25
f 98/98/98 95/95/95 102/102/102
f 153/153/153 102/102/102 154/154/154
f 102/102/102 153/153/153 98/98/98
f 102/102/102 23/23/23 22/22/22
f 154/154/154 22/22/22 155/155/155
f 22/22/22 154/154/154 102/102/102
f 22/22/22 21/21/21 20/20/20
f 155/155/155 20/20/20 156/156/156
f 20/20/20 155/155/155 22/22/22
f 20/20/20 18/18/18 19/19/19
f 156/156/156 19/19/19 157/157/157
f 19/19/19 158/158/158 157/157/157
f 19/19/19 156/156/156 20/20/20
f 158/158/158 19/19/19 17/17/17
f 17/17/17 159/159/159 158/158/158
f 17/17/17 18/18/18 16/16/16
f 159/159/159 17/17/17 15/15/15
f 15/15/15 16/16/16 14/14/14
f 15/15/15 160/160/160 159/159/159
f 160/160/160 15/15/15 13/13/13
f 13/13/13 161/161/161 160/160/160
f 13/13/13 14/14/14 12/12/12
f 161/161/161 13/13/13 11/11/11
f 11/11/11 12/12/12 10/10/10
f 11/11/11 162/162/162 161/161/161
f 162/162/162 11/11/11 9/9/9
f 9/9/9 163/163/163 162/162/162
f 9/9/9 10/10/10 8/8/8
f 163/163/163 9/9/9 7/7/7
f 7/7/7 164/164/164 163/163/163
f 7/7/7 8/8/8 6/6/6
f 164/164/164 7/7/7 5/5/5
f 5/5/5 165/165/165 164/164/164
f 5/5/5 6/6/6 4/4/4
f 165/165/165 5/5/5 3/3/3
f 3/3/3 166/166/166 165/165/165
f 3/3/3 4/4/4 1/1/1
f 2/2/2 1/1/1 54/54/54
f 166/166/166 3/3/3 2/2/2
f 166/166/166 52/52/52 167/167/167
f 52/52/52 51/51/51 50/50/50
f 52/52/52 166/166/166 2/2/2
f 52/52/52 54/54/54 53/53/53
f 167/167/167 50/50/50 168/168/168
f 50/50/50 49/49/49 169/169/169
f 50/50/50 167/167/167 52/52/52
f 169/169/169 168/168/168 50/50/50
f 168/168/168 169/169/169 170/170/170

