# https://github.com/mikedh/trimesh
mtllib B07D42T6CX_part_2.mtl
usemtl texture_b3e708a3-10c4-4396-bd0d-f4aa3cc03622
v -0.54550594 0.58562513 0.45043396
v -0.54339778 0.58261304 0.45264066
v -0.54339778 0.58630330 0.45111213
v -0.54550594 0.58562513 0.45043396
v -0.54705082 0.58261304 0.44742191
v -0.54598075 0.58261304 0.45111213
v -0.54550594 0.58562513 0.45043396
v -0.54339778 0.58783183 0.44742191
v -0.54598075 0.58630330 0.44742191
v 0.54774890 0.35205915 0.45043396
v 0.54929365 0.35507107 0.44742191
v 0.54822366 0.35507107 0.45111213
v 0.54774890 0.35205915 0.45043396
v 0.54564049 0.34985245 0.44742191
v 0.54822366 0.35138089 0.44742191
v -0.54550594 0.35205915 0.45043396
v -0.54705082 0.35507107 0.44742191
v -0.54598075 0.35138089 0.44742191
v 0.54822366 0.58630330 0.44742191
v 0.54822366 0.58261304 0.45111213
v 0.54929365 0.58261304 0.44742191
v 0.54929365 0.58261304 0.28505560
v 0.54929365 0.35507107 0.28505560
v 0.54822366 0.58630330 0.28505560
v 0.54822366 0.58630330 0.44742191
v 0.54564049 0.58630330 0.45111213
v 0.54774890 0.58562513 0.45043396
v 0.54564049 0.58783183 0.28505560
v 0.54564049 0.58783183 0.44742191
v 0.54822366 0.58630330 0.28505560
v 0.54564049 0.58630330 0.45111213
v 0.54822366 0.58261304 0.45111213
v 0.54774890 0.58562513 0.45043396
v 0.54564049 0.58261304 0.45264066
v -0.54339778 0.58630330 0.45111213
v -0.54339778 0.58783183 0.28505560
v -0.54598075 0.58630330 0.28505560
v -0.54705082 0.58261304 0.28505560
v -0.54598075 0.58630330 0.44742191
v -0.54598075 0.58630330 0.28505560
v 0.54774890 0.58562513 0.45043396
v 0.54822366 0.35507107 0.45111213
v 0.54564049 0.34091374 0.45264066
v 0.54564049 0.35138089 0.45111213
v 0.54564049 0.34091374 0.45264066
v 0.54564049 0.34985245 0.28505560
v 0.54822366 0.35138089 0.28505560
v 0.54822366 0.35138089 0.44742191
v 0.54822366 0.35138089 0.28505560
v -0.54598075 0.58261304 0.45111213
v -0.54598075 0.35507107 0.45111213
v -0.54550594 0.35205915 0.45043396
v -0.54339778 0.35138089 0.45111213
v -0.54339778 0.34091374 0.45264066
v -0.54705082 0.35507107 0.28505560
v -0.54598075 0.35507107 0.45111213
v -0.54339778 0.35138089 0.45111213
v -0.54598075 0.35138089 0.44742191
v -0.54339778 0.34985245 0.44742191
v 0.54564049 0.35138089 0.45111213
v -0.54339778 0.34985245 0.28505560
v -0.54339778 0.34091374 0.45264066
v 0.54774890 0.35205915 0.45043396
v -0.54598075 0.35138089 0.28505560
v -0.54550594 0.35205915 0.45043396
v -0.54598075 0.35138089 0.28505560
vn -0.32527193 0.32527193 0.88791685
vn -0.00086300 0.00989500 0.99995067
vn -0.00053800 0.38262276 0.92390450
vn -0.88791978 0.32526395 0.32527193
vn -0.99991004 0.00982700 0.00912900
vn -0.92414428 0.00615200 0.38199411
vn -0.32527299 0.88791791 0.32526798
vn -0.00086400 0.99995732 0.00919800
vn -0.38204377 0.92412655 0.00571700
vn 0.88791579 -0.32527489 0.32527188
vn 0.99991004 -0.00982700 0.00912900
vn 0.92414428 -0.00615300 0.38199411
vn 0.32527697 -0.88791500 0.32527197
vn 0.00086400 -0.99995732 0.00919800
vn 0.38204411 -0.92412640 0.00571700
vn -0.88791978 -0.32526293 0.32527295
vn -0.99991004 -0.00982700 0.00912900
vn -0.92412655 -0.38204377 0.00571600
vn 0.92412605 0.38204498 0.00571600
vn 0.92414428 0.00615300 0.38199411
vn 0.99991004 0.00982700 0.00912900
vn 0.99995097 0.00990200 0.00000000
vn 0.99995097 -0.00990200 0.00000000
vn 0.92387721 0.38268904 0.00000000
vn 0.38204412 0.92412641 0.00571600
vn 0.00053800 0.92390315 0.38262604
vn 0.32527709 0.88791527 0.32527110
vn 0.00087000 0.99999962 0.00000000
vn 0.00086400 0.99995732 0.00919800
vn 0.38268783 0.92387771 0.00000000
vn 0.00053800 0.38262276 0.92390450
vn 0.38199205 0.00615300 0.92414513
vn 0.32527092 0.32526791 0.88791870
vn 0.00086300 0.00989500 0.99995067
vn -0.00053800 0.92390315 0.38262604
vn -0.00087000 0.99999962 0.00000000
vn -0.38268783 0.92387771 0.00000000
vn -0.99995097 0.00990200 0.00000000
vn -0.92412641 0.38204412 0.00571600
vn -0.92387721 0.38268904 0.00000000
vn 0.88791607 0.32527699 0.32526901
vn 0.38199205 -0.00615300 0.92414513
vn 0.00086300 -0.00989500 0.99995067
vn 0.00053800 -0.38262106 0.92390521
vn 0.00086300 -0.00989500 0.99995067
vn 0.00087000 -0.99999962 0.00000000
vn 0.38268783 -0.92387771 0.00000000
vn 0.92412655 -0.38204377 0.00571700
vn 0.92387771 -0.38268783 0.00000000
vn -0.38199205 0.00615300 0.92414513
vn -0.38199205 -0.00615300 0.92414513
vn -0.32527610 -0.32526912 0.88791636
vn -0.00053800 -0.38262106 0.92390521
vn -0.00086300 -0.00989500 0.99995067
vn -0.99995097 -0.00990200 0.00000000
vn -0.92414428 -0.00615200 0.38199411
vn -0.00053800 -0.92390521 0.38262106
vn -0.38204377 -0.92412655 0.00571700
vn -0.00086400 -0.99995732 0.00919800
vn 0.00053800 -0.92390521 0.38262106
vn -0.00087000 -0.99999962 0.00000000
vn -0.00086300 -0.00989500 0.99995067
vn 0.32527604 -0.32526704 0.88791714
vn -0.92387771 -0.38268783 0.00000000
vn -0.32527299 -0.88791791 0.32526798
vn -0.38268783 -0.92387771 0.00000000
vt 0.67651546 0.93270916
vt 0.67710453 0.93352222
vt 0.67709965 0.93255627
vt 0.98813611 0.84245515
vt 0.98737007 0.84321916
vt 0.98829895 0.84321773
vt 0.67556214 0.92625576
vt 0.67614722 0.92543793
vt 0.67542267 0.92544901
vt 0.94774908 0.97278619
vt 0.94851667 0.97202337
vt 0.94758767 0.97202492
vt 0.93933886 0.84139884
vt 0.93875283 0.84221596
vt 0.93947762 0.84220493
vt 0.98812586 0.89900458
vt 0.98736030 0.89823973
vt 0.98736483 0.89916861
vt 0.94852418 0.91608226
vt 0.94760114 0.91700792
vt 0.94853026 0.91701114
vt 0.98778683 0.91698015
vt 0.98780817 0.97204769
vt 0.98778373 0.91605067
vt 0.94023526 0.92542779
vt 0.93951380 0.92638338
vt 0.94009686 0.92623383
vt 0.93957078 0.88615215
vt 0.93951035 0.92541736
vt 0.94029677 0.88616014
vt 0.94053245 0.93255627
vt 0.94125295 0.93351656
vt 0.94111681 0.93270910
vt 0.94052768 0.93352222
vt 0.67614532 0.92640388
vt 0.67608440 0.88615489
vt 0.67535853 0.88616306
vt 0.94808418 0.84320307
vt 0.98737365 0.84229028
vt 0.94808775 0.84227359
vt 0.94776314 0.91624737
vt 0.94125295 0.98856723
vt 0.94052768 0.98856151
vt 0.94053245 0.98952740
vt 0.94052768 0.98856151
vt 0.93881267 0.88148129
vt 0.93953866 0.88147306
vt 0.94851071 0.97295225
vt 0.98780519 0.97297704
vt 0.67637926 0.93351650
vt 0.67637926 0.98856717
vt 0.67651540 0.98937458
vt 0.67709965 0.98952746
vt 0.67710441 0.98856151
vt 0.94809777 0.89826173
vt 0.98828942 0.89824331
vt 0.67538714 0.84122890
vt 0.67466497 0.84218460
vt 0.67538977 0.84219486
vt 0.93875593 0.84125000
vt 0.67532682 0.88147777
vt 0.67710441 0.98856151
vt 0.94111657 0.98937458
vt 0.94810253 0.89919114
vt 0.67480385 0.84137797
vt 0.67460084 0.88146991
f 1/1/1 2/2/2 3/3/3
f 4/4/4 5/5/5 6/6/6
f 7/7/7 8/8/8 9/9/9
f 10/10/10 11/11/11 12/12/12
f 13/13/13 14/14/14 15/15/15
f 16/16/16 17/17/17 18/18/18
f 19/19/19 20/20/20 21/21/21
f 22/22/22 11/11/11 23/23/23
f 24/24/24 21/21/21 22/22/22
f 25/25/25 26/26/26 27/27/27
f 28/28/28 8/8/8 29/29/29
f 30/30/30 29/29/29 25/25/25
f 31/31/31 32/32/32 33/33/33
f 3/3/3 34/34/34 31/31/31
f 26/26/26 25/25/25 29/29/29
f 29/29/29 30/30/30 28/28/28
f 29/29/29 35/35/35 26/26/26
f 35/35/35 29/29/29 8/8/8
f 8/8/8 28/28/28 36/36/36
f 8/8/8 7/7/7 35/35/35
f 36/36/36 9/9/9 8/8/8
f 9/9/9 36/36/36 37/37/37
f 38/38/38 39/39/39 40/40/40
f 39/39/39 38/38/38 5/5/5
f 20/20/20 19/19/19 41/41/41
f 12/12/12 21/21/21 20/20/20
f 21/21/21 12/12/12 11/11/11
f 21/21/21 24/24/24 19/19/19
f 32/32/32 31/31/31 34/34/34
f 34/34/34 42/42/42 32/32/32
f 34/34/34 3/3/3 2/2/2
f 42/42/42 43/43/43 44/44/44
f 42/42/42 34/34/34 45/45/45
f 46/46/46 15/15/15 14/14/14
f 15/15/15 46/46/46 47/47/47
f 11/11/11 22/22/22 21/21/21
f 11/11/11 10/10/10 48/48/48
f 48/48/48 23/23/23 11/11/11
f 23/23/23 48/48/48 49/49/49
f 2/2/2 1/1/1 50/50/50
f 2/2/2 45/45/45 34/34/34
f 51/51/51 52/52/52 53/53/53
f 50/50/50 54/54/54 2/2/2
f 5/5/5 4/4/4 39/39/39
f 5/5/5 55/55/55 17/17/17
f 6/6/6 17/17/17 56/56/56
f 57/57/57 58/58/58 59/59/59
f 14/14/14 13/13/13 60/60/60
f 14/14/14 61/61/61 46/46/46
f 60/60/60 59/59/59 14/14/14
f 45/45/45 2/2/2 54/54/54
f 53/53/53 62/62/62 51/51/51
f 54/54/54 50/50/50 51/51/51
f 54/54/54 44/44/44 45/45/45
f 44/44/44 63/63/63 42/42/42
f 44/44/44 54/54/54 53/53/53
f 55/55/55 5/5/5 38/38/38
f 64/64/64 17/17/17 55/55/55
f 17/17/17 16/16/16 56/56/56
f 17/17/17 6/6/6 5/5/5
f 17/17/17 64/64/64 18/18/18
f 58/58/58 57/57/57 65/65/65
f 61/61/61 14/14/14 59/59/59
f 66/66/66 59/59/59 58/58/58
f 59/59/59 60/60/60 57/57/57
f 59/59/59 66/66/66 61/61/61

